RedHatTextVF-Bold.ufo
<glyph name="exclam" format="2">
  <advance width="275"/>
  <unicode hex="0021"/>
  <outline>
    <contour>
      <point x="79" y="227" type="line"/>
      <point x="197" y="227" type="line"/>
      <point x="216" y="727" type="line"/>
      <point x="60" y="727" type="line"/>
    </contour>
    <contour>
      <point x="138" y="-11" type="curve" smooth="yes"/>
      <point x="186" y="-11"/>
      <point x="226" y="30"/>
      <point x="226" y="80" type="curve" smooth="yes"/>
      <point x="226" y="130"/>
      <point x="186" y="171"/>
      <point x="138" y="171" type="curve" smooth="yes"/>
      <point x="89" y="171"/>
      <point x="49" y="130"/>
      <point x="49" y="80" type="curve" smooth="yes"/>
      <point x="49" y="30"/>
      <point x="89" y="-11"/>
    </contour>
  </outline>
</glyph>
<glyph name="parenleft" format="2">
  <advance width="430"/>
  <unicode hex="0028"/>
  <outline>
    <contour>
      <point x="311" y="-225" type="curve"/>
      <point x="397" y="-126" type="line"/>
      <point x="270" y="-42"/>
      <point x="203" y="85"/>
      <point x="203" y="243" type="curve" smooth="yes"/>
      <point x="203" y="401"/>
      <point x="270" y="528"/>
      <point x="397" y="612" type="curve"/>
      <point x="311" y="711" type="line"/>
      <point x="149" y="613"/>
      <point x="61" y="447"/>
      <point x="61" y="243" type="curve" smooth="yes"/>
      <point x="61" y="39"/>
      <point x="149" y="-127"/>
    </contour>
  </outline>
</glyph>
<glyph name="asterisk" format="2">
  <advance width="493"/>
  <unicode hex="002A"/>
  <outline>
    <contour>
      <point x="198" y="306" type="line"/>
      <point x="296" y="306" type="line"/>
      <point x="294" y="412" type="line"/>
      <point x="387" y="351" type="line"/>
      <point x="442" y="438" type="line"/>
      <point x="339" y="501" type="line"/>
      <point x="444" y="567" type="line"/>
      <point x="389" y="652" type="line"/>
      <point x="294" y="589" type="line"/>
      <point x="296" y="700" type="line"/>
      <point x="198" y="700" type="line"/>
      <point x="200" y="590" type="line"/>
      <point x="105" y="652" type="line"/>
      <point x="51" y="567" type="line"/>
      <point x="156" y="501" type="line"/>
      <point x="53" y="438" type="line"/>
      <point x="106" y="351" type="line"/>
      <point x="200" y="412" type="line"/>
    </contour>
  </outline>
</glyph>
<glyph name="hyphen" format="2">
  <advance width="470"/>
  <unicode hex="002D"/>
  <outline>
    <contour>
      <point x="51" y="219" type="line"/>
      <point x="419" y="219" type="line"/>
      <point x="419" y="354" type="line"/>
      <point x="51" y="354" type="line"/>
    </contour>
  </outline>
</glyph>
<glyph name="four" format="2">
  <advance width="691"/>
  <unicode hex="0034"/>
  <outline>
    <contour>
      <point x="416" y="0" type="line"/>
      <point x="565" y="0" type="line"/>
      <point x="565" y="157" type="line"/>
      <point x="653" y="157" type="line"/>
      <point x="653" y="288" type="line"/>
      <point x="565" y="288" type="line"/>
      <point x="565" y="700" type="line"/>
      <point x="395" y="700" type="line"/>
      <point x="42" y="284" type="line"/>
      <point x="42" y="157" type="line"/>
      <point x="416" y="157" type="line"/>
    </contour>
    <contour>
      <point x="202" y="288" type="line"/>
      <point x="416" y="540" type="line"/>
      <point x="416" y="288" type="line"/>
    </contour>
  </outline>
</glyph>
<glyph name="C" format="2">
  <advance width="720"/>
  <unicode hex="0043"/>
  <anchor x="403" y="700" name="top"/>
  <anchor x="405" y="0" name="bottom"/>
  <outline>
    <contour>
      <point x="414" y="-11" type="curve" smooth="yes"/>
      <point x="526" y="-11"/>
      <point x="637" y="42"/>
      <point x="698" y="125" type="curve"/>
      <point x="582" y="235" type="line"/>
      <point x="536" y="173"/>
      <point x="480" y="142"/>
      <point x="414" y="142" type="curve" smooth="yes"/>
      <point x="305" y="142"/>
      <point x="223" y="231"/>
      <point x="223" y="350" type="curve" smooth="yes"/>
      <point x="223" y="469"/>
      <point x="305" y="558"/>
      <point x="414" y="558" type="curve" smooth="yes"/>
      <point x="480" y="558"/>
      <point x="536" y="527"/>
      <point x="582" y="465" type="curve"/>
      <point x="698" y="575" type="line"/>
      <point x="637" y="658"/>
      <point x="526" y="711"/>
      <point x="414" y="711" type="curve" smooth="yes"/>
      <point x="206" y="711"/>
      <point x="45" y="554"/>
      <point x="45" y="350" type="curve" smooth="yes"/>
      <point x="45" y="146"/>
      <point x="206" y="-11"/>
    </contour>
  </outline>
</glyph>
<glyph name="D" format="2">
  <advance width="760"/>
  <unicode hex="0044"/>
  <anchor x="381" y="700" name="top"/>
  <outline>
    <contour>
      <point x="250" y="147" type="line"/>
      <point x="250" y="553" type="line"/>
      <point x="363" y="553" type="line" smooth="yes"/>
      <point x="460" y="553"/>
      <point x="537" y="463"/>
      <point x="537" y="350" type="curve" smooth="yes"/>
      <point x="537" y="237"/>
      <point x="460" y="147"/>
      <point x="363" y="147" type="curve" smooth="yes"/>
    </contour>
    <contour>
      <point x="78" y="0" type="line"/>
      <point x="363" y="0" type="line" smooth="yes"/>
      <point x="559" y="0"/>
      <point x="715" y="156"/>
      <point x="715" y="350" type="curve" smooth="yes"/>
      <point x="715" y="544"/>
      <point x="559" y="700"/>
      <point x="363" y="700" type="curve" smooth="yes"/>
      <point x="78" y="700" type="line"/>
    </contour>
  </outline>
</glyph>
<glyph name="E" format="2">
  <advance width="668"/>
  <unicode hex="0045"/>
  <anchor x="354" y="700" name="top"/>
  <anchor x="611" y="0" name="bottom"/>
  <outline>
    <contour>
      <point x="78" y="0" type="line"/>
      <point x="611" y="0" type="line"/>
      <point x="611" y="144" type="line"/>
      <point x="250" y="144" type="line"/>
      <point x="250" y="283" type="line"/>
      <point x="502" y="283" type="line"/>
      <point x="502" y="423" type="line"/>
      <point x="250" y="423" type="line"/>
      <point x="250" y="556" type="line"/>
      <point x="607" y="556" type="line"/>
      <point x="607" y="700" type="line"/>
      <point x="78" y="700" type="line"/>
    </contour>
  </outline>
</glyph>
<glyph name="F" format="2">
  <advance width="663"/>
  <unicode hex="0046"/>
  <outline>
    <contour>
      <point x="78" y="0" type="line"/>
      <point x="250" y="0" type="line"/>
      <point x="250" y="278" type="line"/>
      <point x="502" y="278" type="line"/>
      <point x="502" y="418" type="line"/>
      <point x="250" y="418" type="line"/>
      <point x="250" y="556" type="line"/>
      <point x="611" y="556" type="line"/>
      <point x="611" y="700" type="line"/>
      <point x="78" y="700" type="line"/>
    </contour>
  </outline>
</glyph>
<glyph name="G" format="2">
  <advance width="806"/>
  <unicode hex="0047"/>
  <anchor x="401" y="700" name="top"/>
  <anchor x="405" y="0" name="bottom"/>
  <outline>
    <contour>
      <point x="413" y="-11" type="curve" smooth="yes"/>
      <point x="615" y="-11"/>
      <point x="761" y="143"/>
      <point x="761" y="353" type="curve" smooth="yes"/>
      <point x="761" y="402" type="line"/>
      <point x="401" y="402" type="line"/>
      <point x="401" y="257" type="line"/>
      <point x="576" y="257" type="line"/>
      <point x="557" y="188"/>
      <point x="495" y="140"/>
      <point x="416" y="140" type="curve" smooth="yes"/>
      <point x="305" y="140"/>
      <point x="223" y="230"/>
      <point x="223" y="350" type="curve" smooth="yes"/>
      <point x="223" y="469"/>
      <point x="302" y="558"/>
      <point x="410" y="558" type="curve" smooth="yes"/>
      <point x="479" y="558"/>
      <point x="539" y="529"/>
      <point x="583" y="470" type="curve"/>
      <point x="704" y="575" type="line"/>
      <point x="639" y="662"/>
      <point x="527" y="711"/>
      <point x="410" y="711" type="curve" smooth="yes"/>
      <point x="205" y="711"/>
      <point x="45" y="553"/>
      <point x="45" y="350" type="curve" smooth="yes"/>
      <point x="45" y="147"/>
      <point x="206" y="-11"/>
    </contour>
  </outline>
</glyph>
<glyph name="K" format="2">
  <advance width="738"/>
  <unicode hex="004B"/>
  <anchor x="390" y="0" name="bottom"/>
  <outline>
    <contour>
      <point x="78" y="0" type="line"/>
      <point x="250" y="0" type="line"/>
      <point x="250" y="318" type="line"/>
      <point x="509" y="0" type="line"/>
      <point x="734" y="0" type="line"/>
      <point x="410" y="371" type="line"/>
      <point x="716" y="700" type="line"/>
      <point x="511" y="700" type="line"/>
      <point x="250" y="396" type="line"/>
      <point x="250" y="700" type="line"/>
      <point x="78" y="700" type="line"/>
    </contour>
  </outline>
</glyph>
<glyph name="N" format="2">
  <advance width="788"/>
  <unicode hex="004E"/>
  <anchor x="387" y="700" name="top"/>
  <anchor x="387" y="0" name="bottom"/>
  <outline>
    <contour>
      <point x="78" y="0" type="line"/>
      <point x="240" y="0" type="line"/>
      <point x="237" y="438" type="line"/>
      <point x="558" y="0" type="line"/>
      <point x="710" y="0" type="line"/>
      <point x="710" y="700" type="line"/>
      <point x="548" y="700" type="line"/>
      <point x="551" y="276" type="line"/>
      <point x="240" y="700" type="line"/>
      <point x="78" y="700" type="line"/>
    </contour>
  </outline>
</glyph>
<glyph name="O" format="2">
  <advance width="814"/>
  <unicode hex="004F"/>
  <anchor x="407" y="700" name="top"/>
  <outline>
    <contour>
      <point x="407" y="-11" type="curve" smooth="yes"/>
      <point x="610" y="-11"/>
      <point x="769" y="148"/>
      <point x="769" y="350" type="curve" smooth="yes"/>
      <point x="769" y="552"/>
      <point x="610" y="711"/>
      <point x="407" y="711" type="curve" smooth="yes"/>
      <point x="204" y="711"/>
      <point x="45" y="552"/>
      <point x="45" y="350" type="curve" smooth="yes"/>
      <point x="45" y="148"/>
      <point x="204" y="-11"/>
    </contour>
    <contour>
      <point x="407" y="142" type="curve" smooth="yes"/>
      <point x="302" y="142"/>
      <point x="222" y="231"/>
      <point x="222" y="350" type="curve" smooth="yes"/>
      <point x="222" y="469"/>
      <point x="302" y="558"/>
      <point x="407" y="558" type="curve" smooth="yes"/>
      <point x="512" y="558"/>
      <point x="592" y="469"/>
      <point x="592" y="350" type="curve" smooth="yes"/>
      <point x="592" y="231"/>
      <point x="512" y="142"/>
    </contour>
  </outline>
</glyph>
<glyph name="P" format="2">
  <advance width="710"/>
  <unicode hex="0050"/>
  <outline>
    <contour>
      <point x="78" y="0" type="line"/>
      <point x="250" y="0" type="line"/>
      <point x="250" y="244" type="line"/>
      <point x="420" y="244" type="line" smooth="yes"/>
      <point x="569" y="244"/>
      <point x="667" y="342"/>
      <point x="667" y="469" type="curve" smooth="yes"/>
      <point x="667" y="603"/>
      <point x="569" y="700"/>
      <point x="420" y="700" type="curve" smooth="yes"/>
      <point x="78" y="700" type="line"/>
    </contour>
    <contour>
      <point x="250" y="381" type="line"/>
      <point x="250" y="558" type="line"/>
      <point x="390" y="558" type="line" smooth="yes"/>
      <point x="459" y="558"/>
      <point x="493" y="520"/>
      <point x="493" y="470" type="curve" smooth="yes"/>
      <point x="493" y="419"/>
      <point x="459" y="381"/>
      <point x="389" y="381" type="curve" smooth="yes"/>
    </contour>
  </outline>
</glyph>
<glyph name="R" format="2">
  <advance width="703"/>
  <unicode hex="0052"/>
  <anchor x="349" y="700" name="top"/>
  <anchor x="355" y="0" name="bottom"/>
  <outline>
    <contour>
      <point x="78" y="0" type="line"/>
      <point x="250" y="0" type="line"/>
      <point x="250" y="257" type="line"/>
      <point x="363" y="257" type="line"/>
      <point x="490" y="0" type="line"/>
      <point x="682" y="0" type="line"/>
      <point x="535" y="281" type="line"/>
      <point x="614" y="316"/>
      <point x="665" y="388"/>
      <point x="665" y="477" type="curve" smooth="yes"/>
      <point x="665" y="607"/>
      <point x="562" y="700"/>
      <point x="418" y="700" type="curve" smooth="yes"/>
      <point x="78" y="700" type="line"/>
    </contour>
    <contour>
      <point x="250" y="392" type="line"/>
      <point x="250" y="558" type="line"/>
      <point x="402" y="558" type="line" smooth="yes"/>
      <point x="455" y="558"/>
      <point x="491" y="525"/>
      <point x="491" y="475" type="curve" smooth="yes"/>
      <point x="491" y="425"/>
      <point x="455" y="392"/>
      <point x="402" y="392" type="curve" smooth="yes"/>
    </contour>
  </outline>
</glyph>
<glyph name="S" format="2">
  <advance width="655"/>
  <unicode hex="0053"/>
  <note>
Version created Fri Aug  3 17:49:29 2018
</note>
  <anchor x="309" y="700" name="top"/>
  <anchor x="319" y="0" name="bottom"/>
  <outline>
    <contour>
      <point x="322" y="-11" type="curve"/>
      <point x="505" y="-11"/>
      <point x="621" y="82"/>
      <point x="621" y="219" type="curve"/>
      <point x="621" y="326"/>
      <point x="552" y="395"/>
      <point x="421" y="417" type="curve" smooth="yes"/>
      <point x="281" y="441" type="line" smooth="yes"/>
      <point x="225" y="451"/>
      <point x="202" y="469"/>
      <point x="202" y="505" type="curve" smooth="yes"/>
      <point x="202" y="543"/>
      <point x="241" y="571"/>
      <point x="309" y="571" type="curve" smooth="yes"/>
      <point x="383" y="571"/>
      <point x="450" y="546"/>
      <point x="518" y="494" type="curve"/>
      <point x="605" y="619" type="line"/>
      <point x="533" y="676"/>
      <point x="426" y="711"/>
      <point x="318" y="711" type="curve"/>
      <point x="144" y="711"/>
      <point x="40" y="626"/>
      <point x="40" y="490" type="curve"/>
      <point x="40" y="391"/>
      <point x="101" y="321"/>
      <point x="212" y="302" type="curve" smooth="yes"/>
      <point x="361" y="276" type="line" smooth="yes"/>
      <point x="429" y="264"/>
      <point x="453" y="244"/>
      <point x="453" y="203" type="curve" smooth="yes"/>
      <point x="453" y="159"/>
      <point x="408" y="129"/>
      <point x="334" y="129" type="curve" smooth="yes"/>
      <point x="265" y="129"/>
      <point x="204" y="154"/>
      <point x="107" y="222" type="curve"/>
      <point x="19" y="95" type="line"/>
      <point x="112" y="26"/>
      <point x="211" y="-11"/>
    </contour>
  </outline>
</glyph>
<glyph name="V" format="2">
  <advance width="742"/>
  <unicode hex="0056"/>
  <outline>
    <contour>
      <point x="271" y="0" type="line"/>
      <point x="467" y="0" type="line"/>
      <point x="740" y="700" type="line"/>
      <point x="561" y="700" type="line"/>
      <point x="373" y="179" type="line"/>
      <point x="188" y="700" type="line"/>
      <point x="2" y="700" type="line"/>
    </contour>
  </outline>
</glyph>
<glyph name="W" format="2">
  <advance width="983"/>
  <unicode hex="0057"/>
  <anchor x="490" y="700" name="top"/>
  <outline>
    <contour>
      <point x="186" y="0" type="line"/>
      <point x="368" y="0" type="line"/>
      <point x="492" y="451" type="line"/>
      <point x="615" y="0" type="line"/>
      <point x="797" y="0" type="line"/>
      <point x="953" y="700" type="line"/>
      <point x="782" y="700" type="line"/>
      <point x="697" y="266" type="line"/>
      <point x="575" y="700" type="line"/>
      <point x="414" y="700" type="line"/>
      <point x="292" y="266" type="line"/>
      <point x="207" y="700" type="line"/>
      <point x="30" y="700" type="line"/>
    </contour>
  </outline>
</glyph>
<glyph name="X" format="2">
  <advance width="755"/>
  <unicode hex="0058"/>
  <outline>
    <contour>
      <point x="10" y="0" type="line"/>
      <point x="207" y="0" type="line"/>
      <point x="374" y="236" type="line"/>
      <point x="540" y="0" type="line"/>
      <point x="745" y="0" type="line"/>
      <point x="477" y="358" type="line"/>
      <point x="729" y="700" type="line"/>
      <point x="532" y="700" type="line"/>
      <point x="382" y="488" type="line"/>
      <point x="231" y="700" type="line"/>
      <point x="26" y="700" type="line"/>
      <point x="279" y="364" type="line"/>
    </contour>
  </outline>
</glyph>
<glyph name="Y" format="2">
  <advance width="739"/>
  <unicode hex="0059"/>
  <guideline x="375" y="700" angle="0.0" identifier="qb5EYBX0Za"/>
  <anchor x="366" y="700" name="top"/>
  <outline>
    <contour>
      <point x="283" y="0" type="line"/>
      <point x="455" y="0" type="line"/>
      <point x="455" y="266" type="line"/>
      <point x="740" y="700" type="line"/>
      <point x="553" y="700" type="line"/>
      <point x="374" y="413" type="line"/>
      <point x="197" y="700" type="line"/>
      <point x="-1" y="700" type="line"/>
      <point x="283" y="265" type="line"/>
    </contour>
  </outline>
</glyph>
<glyph name="Z" format="2">
  <advance width="623"/>
  <unicode hex="005A"/>
  <anchor x="315" y="700" name="top"/>
  <outline>
    <contour>
      <point x="29" y="0" type="line"/>
      <point x="599" y="0" type="line"/>
      <point x="599" y="144" type="line"/>
      <point x="251" y="141" type="line"/>
      <point x="596" y="588" type="line"/>
      <point x="596" y="700" type="line"/>
      <point x="31" y="700" type="line"/>
      <point x="31" y="556" type="line"/>
      <point x="376" y="559" type="line"/>
      <point x="29" y="112" type="line"/>
    </contour>
  </outline>
</glyph>
<glyph name="bracketleft" format="2">
  <advance width="422"/>
  <unicode hex="005B"/>
  <outline>
    <contour>
      <point x="68" y="-215" type="line"/>
      <point x="371" y="-215" type="line"/>
      <point x="371" y="-89" type="line"/>
      <point x="214" y="-89" type="line"/>
      <point x="214" y="574" type="line"/>
      <point x="371" y="574" type="line" smooth="yes"/>
      <point x="371" y="700" type="line"/>
      <point x="68" y="700" type="line"/>
    </contour>
  </outline>
</glyph>
<glyph name="asciicircum" format="2">
  <advance width="600"/>
  <unicode hex="005E"/>
  <outline>
    <contour>
      <point x="60" y="350" type="line"/>
      <point x="185" y="350" type="line"/>
      <point x="300" y="584" type="line"/>
      <point x="415" y="350" type="line"/>
      <point x="540" y="350" type="line"/>
      <point x="366" y="700" type="line"/>
      <point x="234" y="700" type="line"/>
    </contour>
  </outline>
</glyph>
<glyph name="e" format="2">
  <advance width="592"/>
  <unicode hex="0065"/>
  <anchor x="300" y="516" name="top"/>
  <anchor x="395" y="0" name="bottom"/>
  <outline>
    <contour>
      <point x="312" y="-10" type="curve" smooth="yes"/>
      <point x="399" y="-10"/>
      <point x="462" y="14"/>
      <point x="529" y="73" type="curve"/>
      <point x="422" y="162" type="line"/>
      <point x="399" y="134"/>
      <point x="363" y="119"/>
      <point x="320" y="119" type="curve" smooth="yes"/>
      <point x="261" y="119"/>
      <point x="214" y="158"/>
      <point x="199" y="216" type="curve"/>
      <point x="554" y="216" type="line"/>
      <point x="554" y="251" type="line" smooth="yes"/>
      <point x="554" y="411"/>
      <point x="449" y="524"/>
      <point x="300" y="524" type="curve" smooth="yes"/>
      <point x="152" y="524"/>
      <point x="40" y="408"/>
      <point x="40" y="257" type="curve" smooth="yes"/>
      <point x="40" y="107"/>
      <point x="160" y="-10"/>
    </contour>
    <contour>
      <point x="199" y="308" type="line"/>
      <point x="212" y="365"/>
      <point x="248" y="398"/>
      <point x="299" y="398" type="curve" smooth="yes"/>
      <point x="351" y="398"/>
      <point x="390" y="363"/>
      <point x="404" y="308" type="curve"/>
    </contour>
  </outline>
</glyph>
<glyph name="f" format="2">
  <advance width="460"/>
  <unicode hex="0066"/>
  <outline>
    <contour>
      <point x="139" y="0" type="line"/>
      <point x="301" y="0" type="line"/>
      <point x="301" y="391" type="line"/>
      <point x="431" y="391" type="line"/>
      <point x="431" y="516" type="line"/>
      <point x="301" y="516" type="line"/>
      <point x="301" y="581" type="line" smooth="yes"/>
      <point x="301" y="619"/>
      <point x="323" y="637"/>
      <point x="369" y="637" type="curve" smooth="yes"/>
      <point x="387" y="637"/>
      <point x="402" y="636"/>
      <point x="431" y="631" type="curve"/>
      <point x="431" y="764" type="line"/>
      <point x="410" y="770"/>
      <point x="373" y="774"/>
      <point x="345" y="774" type="curve" smooth="yes"/>
      <point x="212" y="774"/>
      <point x="139" y="707"/>
      <point x="139" y="584" type="curve" smooth="yes"/>
      <point x="139" y="516" type="line"/>
      <point x="32" y="516" type="line"/>
      <point x="32" y="391" type="line"/>
      <point x="139" y="391" type="line"/>
    </contour>
  </outline>
</glyph>
<glyph name="g" format="2">
  <advance width="642"/>
  <unicode hex="0067"/>
  <anchor x="321" y="516" name="top"/>
  <outline>
    <contour>
      <point x="307" y="-219" type="curve" smooth="yes"/>
      <point x="483" y="-219"/>
      <point x="579" y="-142"/>
      <point x="579" y="-3" type="curve" smooth="yes"/>
      <point x="579" y="516" type="line"/>
      <point x="420" y="516" type="line"/>
      <point x="420" y="454" type="line"/>
      <point x="385" y="496"/>
      <point x="335" y="519"/>
      <point x="280" y="519" type="curve"/>
      <point x="146" y="519"/>
      <point x="40" y="405"/>
      <point x="40" y="261" type="curve" smooth="yes"/>
      <point x="40" y="117"/>
      <point x="141" y="1"/>
      <point x="268" y="1" type="curve"/>
      <point x="328" y="1"/>
      <point x="384" y="27"/>
      <point x="418" y="69" type="curve"/>
      <point x="418" y="-1" type="line" smooth="yes"/>
      <point x="418" y="-64"/>
      <point x="378" y="-96"/>
      <point x="301" y="-96" type="curve" smooth="yes"/>
      <point x="251" y="-96"/>
      <point x="200" y="-83"/>
      <point x="143" y="-56" type="curve"/>
      <point x="93" y="-173" type="line"/>
      <point x="155" y="-203"/>
      <point x="229" y="-219"/>
    </contour>
    <contour>
      <point x="322" y="133" type="curve"/>
      <point x="252" y="133"/>
      <point x="199" y="187"/>
      <point x="199" y="260" type="curve" smooth="yes"/>
      <point x="199" y="333"/>
      <point x="251" y="386"/>
      <point x="322" y="386" type="curve"/>
      <point x="359" y="386"/>
      <point x="393" y="372"/>
      <point x="418" y="346" type="curve"/>
      <point x="418" y="174" type="line"/>
      <point x="393" y="147"/>
      <point x="361" y="133"/>
    </contour>
  </outline>
</glyph>
<glyph name="i" format="2">
  <advance width="288"/>
  <unicode hex="0069"/>
  <anchor x="144" y="516" name="top"/>
  <anchor x="225" y="0" name="bottom"/>
  <outline>
    <contour>
      <point x="63" y="0" type="line"/>
      <point x="225" y="0" type="line"/>
      <point x="225" y="516" type="line"/>
      <point x="63" y="516" type="line"/>
    </contour>
    <contour>
      <point x="144" y="595" type="curve" smooth="yes"/>
      <point x="194" y="595"/>
      <point x="235" y="636"/>
      <point x="235" y="686" type="curve" smooth="yes"/>
      <point x="235" y="736"/>
      <point x="194" y="777"/>
      <point x="144" y="777" type="curve" smooth="yes"/>
      <point x="94" y="777"/>
      <point x="53" y="736"/>
      <point x="53" y="686" type="curve" smooth="yes"/>
      <point x="53" y="636"/>
      <point x="94" y="595"/>
    </contour>
  </outline>
</glyph>
<glyph name="n" format="2">
  <advance width="618"/>
  <unicode hex="006E"/>
  <anchor x="308" y="516" name="top"/>
  <anchor x="308" y="0" name="bottom"/>
  <outline>
    <contour>
      <point x="63" y="0" type="line"/>
      <point x="225" y="0" type="line"/>
      <point x="225" y="354" type="line"/>
      <point x="248" y="383"/>
      <point x="276" y="397"/>
      <point x="311" y="397" type="curve" smooth="yes"/>
      <point x="363" y="397"/>
      <point x="397" y="359"/>
      <point x="397" y="301" type="curve" smooth="yes"/>
      <point x="397" y="0" type="line"/>
      <point x="559" y="0" type="line"/>
      <point x="559" y="348" type="line" smooth="yes"/>
      <point x="559" y="451"/>
      <point x="488" y="524"/>
      <point x="388" y="524" type="curve" smooth="yes"/>
      <point x="321" y="524"/>
      <point x="265" y="492"/>
      <point x="225" y="432" type="curve"/>
      <point x="225" y="516" type="line"/>
      <point x="63" y="516" type="line"/>
    </contour>
  </outline>
</glyph>
<glyph name="o" format="2">
  <advance width="618"/>
  <unicode hex="006F"/>
  <anchor x="309" y="516" name="top"/>
  <outline>
    <contour>
      <point x="309" y="-10" type="curve" smooth="yes"/>
      <point x="462" y="-10"/>
      <point x="578" y="105"/>
      <point x="578" y="257" type="curve" smooth="yes"/>
      <point x="578" y="409"/>
      <point x="462" y="524"/>
      <point x="309" y="524" type="curve" smooth="yes"/>
      <point x="156" y="524"/>
      <point x="40" y="409"/>
      <point x="40" y="257" type="curve" smooth="yes"/>
      <point x="40" y="105"/>
      <point x="156" y="-10"/>
    </contour>
    <contour>
      <point x="309" y="125" type="curve" smooth="yes"/>
      <point x="244" y="125"/>
      <point x="198" y="180"/>
      <point x="198" y="257" type="curve" smooth="yes"/>
      <point x="198" y="334"/>
      <point x="244" y="389"/>
      <point x="309" y="389" type="curve" smooth="yes"/>
      <point x="374" y="389"/>
      <point x="420" y="334"/>
      <point x="420" y="257" type="curve" smooth="yes"/>
      <point x="420" y="180"/>
      <point x="374" y="125"/>
    </contour>
  </outline>
</glyph>
<glyph name="p" format="2">
  <advance width="644"/>
  <unicode hex="0070"/>
  <outline>
    <contour>
      <point x="63" y="-209" type="line"/>
      <point x="225" y="-209" type="line"/>
      <point x="225" y="57" type="line"/>
      <point x="259" y="18"/>
      <point x="308" y="-3"/>
      <point x="364" y="-3" type="curve" smooth="yes"/>
      <point x="498" y="-3"/>
      <point x="604" y="112"/>
      <point x="604" y="257" type="curve" smooth="yes"/>
      <point x="604" y="402"/>
      <point x="503" y="519"/>
      <point x="376" y="519" type="curve" smooth="yes"/>
      <point x="314" y="519"/>
      <point x="257" y="490"/>
      <point x="223" y="444" type="curve"/>
      <point x="223" y="516" type="line"/>
      <point x="63" y="516" type="line"/>
    </contour>
    <contour>
      <point x="322" y="130" type="curve" smooth="yes"/>
      <point x="284" y="130"/>
      <point x="250" y="145"/>
      <point x="225" y="171" type="curve"/>
      <point x="225" y="343" type="line"/>
      <point x="251" y="371"/>
      <point x="282" y="385"/>
      <point x="322" y="385" type="curve" smooth="yes"/>
      <point x="392" y="385"/>
      <point x="445" y="331"/>
      <point x="445" y="258" type="curve" smooth="yes"/>
      <point x="445" y="184"/>
      <point x="393" y="130"/>
    </contour>
  </outline>
</glyph>
<glyph name="s" format="2">
  <advance width="511"/>
  <unicode hex="0073"/>
  <note>
Version created Fri Aug  3 17:49:29 2018
</note>
  <anchor x="244" y="516" name="top"/>
  <anchor x="257" y="0" name="bottom"/>
  <outline>
    <contour>
      <point x="258" y="-10" type="curve" smooth="yes"/>
      <point x="385" y="-10"/>
      <point x="480" y="66"/>
      <point x="480" y="167" type="curve" smooth="yes"/>
      <point x="480" y="245"/>
      <point x="427" y="297"/>
      <point x="325" y="316" type="curve" smooth="yes"/>
      <point x="228" y="334" type="line" smooth="yes"/>
      <point x="188" y="341"/>
      <point x="175" y="350"/>
      <point x="175" y="371" type="curve" smooth="yes"/>
      <point x="175" y="393"/>
      <point x="198" y="406"/>
      <point x="237" y="406" type="curve"/>
      <point x="285" y="406"/>
      <point x="333" y="392"/>
      <point x="385" y="362" type="curve"/>
      <point x="459" y="465" type="line"/>
      <point x="392" y="504"/>
      <point x="321" y="524"/>
      <point x="249" y="524" type="curve"/>
      <point x="114" y="524"/>
      <point x="33" y="461"/>
      <point x="33" y="356" type="curve" smooth="yes"/>
      <point x="33" y="276"/>
      <point x="85" y="225"/>
      <point x="185" y="206" type="curve" smooth="yes"/>
      <point x="284" y="188" type="line" smooth="yes"/>
      <point x="317" y="182"/>
      <point x="332" y="171"/>
      <point x="332" y="151" type="curve" smooth="yes"/>
      <point x="332" y="125"/>
      <point x="304" y="109"/>
      <point x="258" y="109" type="curve" smooth="yes"/>
      <point x="208" y="109"/>
      <point x="166" y="122"/>
      <point x="92" y="161" type="curve"/>
      <point x="21" y="53" type="line"/>
      <point x="81" y="12"/>
      <point x="164" y="-10"/>
    </contour>
  </outline>
</glyph>
<glyph name="u" format="2">
  <advance width="618"/>
  <unicode hex="0075"/>
  <anchor x="300" y="516" name="top"/>
  <anchor x="555" y="0" name="bottom"/>
  <outline>
    <contour>
      <point x="230" y="-8" type="curve" smooth="yes"/>
      <point x="297" y="-8"/>
      <point x="353" y="24"/>
      <point x="393" y="84" type="curve"/>
      <point x="393" y="0" type="line"/>
      <point x="555" y="0" type="line"/>
      <point x="555" y="516" type="line"/>
      <point x="393" y="516" type="line"/>
      <point x="393" y="162" type="line"/>
      <point x="370" y="133"/>
      <point x="342" y="119"/>
      <point x="307" y="119" type="curve" smooth="yes"/>
      <point x="255" y="119"/>
      <point x="221" y="157"/>
      <point x="221" y="215" type="curve" smooth="yes"/>
      <point x="221" y="516" type="line"/>
      <point x="59" y="516" type="line"/>
      <point x="59" y="168" type="line" smooth="yes"/>
      <point x="59" y="65"/>
      <point x="130" y="-8"/>
    </contour>
  </outline>
</glyph>
<glyph name="w" format="2">
  <advance width="783"/>
  <unicode hex="0077"/>
  <anchor x="393" y="516" name="top"/>
  <outline>
    <contour>
      <point x="154" y="0" type="line"/>
      <point x="310" y="0" type="line"/>
      <point x="392" y="304" type="line"/>
      <point x="476" y="0" type="line"/>
      <point x="630" y="0" type="line"/>
      <point x="767" y="516" type="line"/>
      <point x="618" y="516" type="line"/>
      <point x="547" y="209" type="line"/>
      <point x="461" y="516" type="line"/>
      <point x="328" y="516" type="line"/>
      <point x="241" y="208" type="line"/>
      <point x="169" y="516" type="line"/>
      <point x="16" y="516" type="line"/>
    </contour>
  </outline>
</glyph>
<glyph name="y" format="2">
  <advance width="584"/>
  <unicode hex="0079"/>
  <anchor x="290" y="516" name="top"/>
  <outline>
    <contour>
      <point x="119" y="-219" type="curve" smooth="yes"/>
      <point x="238" y="-219"/>
      <point x="297" y="-176"/>
      <point x="345" y="-58" type="curve" smooth="yes"/>
      <point x="577" y="516" type="line"/>
      <point x="402" y="516" type="line"/>
      <point x="284" y="183" type="line"/>
      <point x="181" y="516" type="line"/>
      <point x="2" y="516" type="line"/>
      <point x="192" y="-10" type="line"/>
      <point x="184" y="-27" type="line" smooth="yes"/>
      <point x="168" y="-61"/>
      <point x="144" y="-79"/>
      <point x="100" y="-79" type="curve" smooth="yes"/>
      <point x="81" y="-79"/>
      <point x="64" y="-77"/>
      <point x="52" y="-75" type="curve"/>
      <point x="52" y="-211" type="line"/>
      <point x="74" y="-216"/>
      <point x="100" y="-219"/>
    </contour>
  </outline>
</glyph>
<glyph name="braceleft" format="2">
  <advance width="456"/>
  <unicode hex="007B"/>
  <outline>
    <contour>
      <point x="301" y="-219" type="curve"/>
      <point x="337" y="-219"/>
      <point x="369" y="-213"/>
      <point x="403" y="-201" type="curve"/>
      <point x="382" y="-86" type="line"/>
      <point x="363" y="-93"/>
      <point x="343" y="-97"/>
      <point x="322" y="-97" type="curve"/>
      <point x="272" y="-97"/>
      <point x="251" y="-59"/>
      <point x="269" y="-7" type="curve" smooth="yes"/>
      <point x="301" y="85" type="line" smooth="yes"/>
      <point x="328" y="162"/>
      <point x="285" y="229"/>
      <point x="200" y="246" type="curve"/>
      <point x="285" y="263"/>
      <point x="328" y="330"/>
      <point x="301" y="407" type="curve" smooth="yes"/>
      <point x="269" y="499" type="line" smooth="yes"/>
      <point x="251" y="551"/>
      <point x="272" y="589"/>
      <point x="322" y="589" type="curve"/>
      <point x="343" y="589"/>
      <point x="363" y="585"/>
      <point x="382" y="578" type="curve"/>
      <point x="403" y="693" type="line"/>
      <point x="369" y="705"/>
      <point x="337" y="711"/>
      <point x="301" y="711" type="curve"/>
      <point x="166" y="711"/>
      <point x="96" y="621"/>
      <point x="136" y="499" type="curve" smooth="yes"/>
      <point x="165" y="411" type="line" smooth="yes"/>
      <point x="186" y="348"/>
      <point x="159" y="305"/>
      <point x="101" y="305" type="curve" smooth="yes"/>
      <point x="25" y="305" type="line"/>
      <point x="25" y="187" type="line"/>
      <point x="101" y="187" type="line" smooth="yes"/>
      <point x="159" y="187"/>
      <point x="186" y="144"/>
      <point x="165" y="81" type="curve" smooth="yes"/>
      <point x="136" y="-7" type="line" smooth="yes"/>
      <point x="96" y="-129"/>
      <point x="166" y="-219"/>
    </contour>
  </outline>
</glyph>
<glyph name="yen" format="2">
  <advance width="749"/>
  <unicode hex="00A5"/>
  <outline>
    <contour>
      <point x="283" y="0" type="line"/>
      <point x="455" y="0" type="line"/>
      <point x="455" y="130" type="line"/>
      <point x="614" y="130" type="line"/>
      <point x="614" y="211" type="line"/>
      <point x="455" y="211" type="line"/>
      <point x="455" y="264" type="line"/>
      <point x="614" y="264" type="line"/>
      <point x="614" y="345" type="line"/>
      <point x="507" y="345" type="line"/>
      <point x="740" y="700" type="line"/>
      <point x="553" y="700" type="line"/>
      <point x="374" y="413" type="line"/>
      <point x="197" y="700" type="line"/>
      <point x="-1" y="700" type="line"/>
      <point x="231" y="345" type="line"/>
      <point x="124" y="345" type="line"/>
      <point x="124" y="264" type="line"/>
      <point x="283" y="264" type="line"/>
      <point x="283" y="211" type="line"/>
      <point x="124" y="211" type="line"/>
      <point x="124" y="130" type="line"/>
      <point x="283" y="130" type="line"/>
    </contour>
  </outline>
</glyph>
<glyph name="ordfeminine" format="2">
  <advance width="450"/>
  <unicode hex="00AA"/>
  <outline>
    <contour>
      <point x="172" y="298" type="curve" smooth="yes"/>
      <point x="213" y="298"/>
      <point x="245" y="309"/>
      <point x="280" y="335" type="curve"/>
      <point x="280" y="305" type="line"/>
      <point x="405" y="305" type="line"/>
      <point x="405" y="559" type="line" smooth="yes"/>
      <point x="405" y="655"/>
      <point x="341" y="711"/>
      <point x="229" y="711" type="curve" smooth="yes"/>
      <point x="170" y="711"/>
      <point x="109" y="697"/>
      <point x="41" y="667" type="curve"/>
      <point x="86" y="574" type="line"/>
      <point x="140" y="596"/>
      <point x="176" y="605"/>
      <point x="206" y="605" type="curve" smooth="yes"/>
      <point x="255" y="605"/>
      <point x="280" y="586"/>
      <point x="280" y="548" type="curve" smooth="yes"/>
      <point x="280" y="529" type="line"/>
      <point x="250" y="537"/>
      <point x="221" y="541"/>
      <point x="192" y="541" type="curve" smooth="yes"/>
      <point x="87" y="541"/>
      <point x="27" y="498"/>
      <point x="27" y="422" type="curve" smooth="yes"/>
      <point x="27" y="349"/>
      <point x="87" y="298"/>
    </contour>
    <contour>
      <point x="207" y="387" type="curve" smooth="yes"/>
      <point x="170" y="387"/>
      <point x="148" y="401"/>
      <point x="148" y="424" type="curve" smooth="yes"/>
      <point x="148" y="447"/>
      <point x="170" y="460"/>
      <point x="211" y="460" type="curve" smooth="yes"/>
      <point x="235" y="460"/>
      <point x="258" y="458"/>
      <point x="280" y="453" type="curve"/>
      <point x="280" y="403" type="line"/>
      <point x="260" y="393"/>
      <point x="236" y="387"/>
    </contour>
  </outline>
</glyph>
<glyph name="registered" format="2">
  <advance width="498"/>
  <unicode hex="00AE"/>
  <outline>
    <contour>
      <point x="249" y="304" type="curve"/>
      <point x="360" y="304"/>
      <point x="449" y="397"/>
      <point x="449" y="513" type="curve"/>
      <point x="449" y="629"/>
      <point x="360" y="722"/>
      <point x="249" y="722" type="curve"/>
      <point x="138" y="722"/>
      <point x="49" y="629"/>
      <point x="49" y="513" type="curve"/>
      <point x="49" y="397"/>
      <point x="138" y="304"/>
    </contour>
    <contour>
      <point x="248" y="353" type="curve"/>
      <point x="162" y="353"/>
      <point x="100" y="420"/>
      <point x="100" y="513" type="curve"/>
      <point x="100" y="606"/>
      <point x="162" y="673"/>
      <point x="248" y="673" type="curve"/>
      <point x="336" y="673"/>
      <point x="398" y="606"/>
      <point x="398" y="513" type="curve"/>
      <point x="398" y="420"/>
      <point x="336" y="353"/>
    </contour>
    <contour>
      <point x="178" y="420" type="line"/>
      <point x="228" y="420" type="line"/>
      <point x="228" y="485" type="line"/>
      <point x="247" y="485" type="line"/>
      <point x="279" y="420" type="line"/>
      <point x="334" y="420" type="line"/>
      <point x="294" y="496" type="line"/>
      <point x="313" y="507"/>
      <point x="324" y="527"/>
      <point x="324" y="548" type="curve" smooth="yes"/>
      <point x="324" y="584"/>
      <point x="300" y="608"/>
      <point x="263" y="608" type="curve" smooth="yes"/>
      <point x="178" y="608" type="line"/>
    </contour>
    <contour>
      <point x="252" y="568" type="line" smooth="yes"/>
      <point x="267" y="568"/>
      <point x="274" y="560"/>
      <point x="274" y="545" type="curve" smooth="yes"/>
      <point x="274" y="531"/>
      <point x="265" y="522"/>
      <point x="251" y="522" type="curve" smooth="yes"/>
      <point x="228" y="522" type="line"/>
      <point x="228" y="568" type="line"/>
    </contour>
  </outline>
</glyph>
<glyph name="degree" format="2">
  <advance width="402"/>
  <unicode hex="00B0"/>
  <outline>
    <contour>
      <point x="201" y="411" type="curve" smooth="yes"/>
      <point x="290" y="411"/>
      <point x="356" y="480"/>
      <point x="356" y="561" type="curve" smooth="yes"/>
      <point x="356" y="642"/>
      <point x="290" y="711"/>
      <point x="201" y="711" type="curve" smooth="yes"/>
      <point x="112" y="711"/>
      <point x="46" y="642"/>
      <point x="46" y="561" type="curve" smooth="yes"/>
      <point x="46" y="480"/>
      <point x="112" y="411"/>
    </contour>
    <contour>
      <point x="201" y="492" type="curve" smooth="yes"/>
      <point x="161" y="492"/>
      <point x="129" y="523"/>
      <point x="129" y="561" type="curve" smooth="yes"/>
      <point x="129" y="599"/>
      <point x="161" y="630"/>
      <point x="201" y="630" type="curve" smooth="yes"/>
      <point x="241" y="630"/>
      <point x="273" y="599"/>
      <point x="273" y="561" type="curve" smooth="yes"/>
      <point x="273" y="523"/>
      <point x="241" y="492"/>
    </contour>
  </outline>
</glyph>
<glyph name="twosuperior" format="2">
  <advance width="313"/>
  <unicode hex="00B2"/>
  <outline>
    <contour>
      <point x="33" y="350" type="line"/>
      <point x="294" y="350" type="line"/>
      <point x="294" y="429" type="line"/>
      <point x="156" y="429" type="line"/>
      <point x="244" y="512" type="line" smooth="yes"/>
      <point x="275" y="541"/>
      <point x="290" y="569"/>
      <point x="290" y="599" type="curve" smooth="yes"/>
      <point x="290" y="662"/>
      <point x="237" y="705"/>
      <point x="159" y="705" type="curve" smooth="yes"/>
      <point x="108" y="705"/>
      <point x="59" y="684"/>
      <point x="17" y="643" type="curve"/>
      <point x="69" y="581" type="line"/>
      <point x="100" y="612"/>
      <point x="126" y="624"/>
      <point x="156" y="624" type="curve" smooth="yes"/>
      <point x="180" y="624"/>
      <point x="199" y="610"/>
      <point x="199" y="591" type="curve" smooth="yes"/>
      <point x="199" y="580"/>
      <point x="192" y="568"/>
      <point x="180" y="557" type="curve" smooth="yes"/>
      <point x="33" y="418" type="line"/>
    </contour>
  </outline>
</glyph>
<glyph name="uni00B5" format="2">
  <advance width="622"/>
  <unicode hex="00B5"/>
  <outline>
    <contour>
      <point x="63" y="-209" type="line"/>
      <point x="225" y="-209" type="line"/>
      <point x="225" y="-5" type="line"/>
      <point x="234" y="-7"/>
      <point x="244" y="-8"/>
      <point x="254" y="-8" type="curve" smooth="yes"/>
      <point x="313" y="-8"/>
      <point x="361" y="23"/>
      <point x="397" y="79" type="curve"/>
      <point x="397" y="0" type="line"/>
      <point x="559" y="0" type="line"/>
      <point x="559" y="516" type="line"/>
      <point x="397" y="516" type="line"/>
      <point x="397" y="161" type="line"/>
      <point x="374" y="133"/>
      <point x="346" y="119"/>
      <point x="311" y="119" type="curve" smooth="yes"/>
      <point x="259" y="119"/>
      <point x="225" y="157"/>
      <point x="225" y="215" type="curve"/>
      <point x="225" y="516" type="line"/>
      <point x="63" y="516" type="line"/>
    </contour>
  </outline>
</glyph>
<glyph name="paragraph" format="2">
  <advance width="711"/>
  <unicode hex="00B6"/>
  <outline>
    <contour>
      <point x="310" y="0" type="line"/>
      <point x="434" y="0" type="line"/>
      <point x="434" y="238" type="line"/>
      <point x="517" y="238" type="line"/>
      <point x="517" y="0" type="line"/>
      <point x="641" y="0" type="line"/>
      <point x="641" y="700" type="line"/>
      <point x="283" y="700" type="line" smooth="yes"/>
      <point x="134" y="700"/>
      <point x="36" y="607"/>
      <point x="36" y="464" type="curve" smooth="yes"/>
      <point x="36" y="331"/>
      <point x="138" y="238"/>
      <point x="283" y="238" type="curve" smooth="yes"/>
      <point x="310" y="238" type="line"/>
    </contour>
    <contour>
      <point x="434" y="365" type="line"/>
      <point x="434" y="570" type="line"/>
      <point x="517" y="570" type="line"/>
      <point x="517" y="365" type="line"/>
    </contour>
    <contour>
      <point x="276" y="365" type="line" smooth="yes"/>
      <point x="213" y="365"/>
      <point x="171" y="406"/>
      <point x="171" y="468" type="curve" smooth="yes"/>
      <point x="171" y="529"/>
      <point x="213" y="570"/>
      <point x="276" y="570" type="curve" smooth="yes"/>
      <point x="310" y="570" type="line"/>
      <point x="310" y="365" type="line"/>
    </contour>
  </outline>
</glyph>
<glyph name="periodcentered" format="2">
  <advance width="250"/>
  <unicode hex="00B7"/>
  <outline>
    <contour>
      <point x="125" y="194" type="curve" smooth="yes"/>
      <point x="175" y="194"/>
      <point x="216" y="237"/>
      <point x="216" y="289" type="curve" smooth="yes"/>
      <point x="216" y="341"/>
      <point x="175" y="384"/>
      <point x="125" y="384" type="curve" smooth="yes"/>
      <point x="75" y="384"/>
      <point x="34" y="341"/>
      <point x="34" y="289" type="curve" smooth="yes"/>
      <point x="34" y="237"/>
      <point x="75" y="194"/>
    </contour>
  </outline>
</glyph>
<glyph name="onesuperior" format="2">
  <advance width="207"/>
  <unicode hex="00B9"/>
  <outline>
    <contour>
      <point x="95" y="350" type="line"/>
      <point x="190" y="350" type="line"/>
      <point x="190" y="700" type="line"/>
      <point x="131" y="700" type="line"/>
      <point x="22" y="655" type="line"/>
      <point x="22" y="574" type="line"/>
      <point x="95" y="603" type="line"/>
    </contour>
  </outline>
</glyph>
<glyph name="ordmasculine" format="2">
  <advance width="490"/>
  <unicode hex="00BA"/>
  <outline>
    <contour>
      <point x="245" y="295" type="curve" smooth="yes"/>
      <point x="367" y="295"/>
      <point x="462" y="387"/>
      <point x="462" y="503" type="curve" smooth="yes"/>
      <point x="462" y="619"/>
      <point x="367" y="711"/>
      <point x="245" y="711" type="curve" smooth="yes"/>
      <point x="123" y="711"/>
      <point x="28" y="619"/>
      <point x="28" y="503" type="curve" smooth="yes"/>
      <point x="28" y="387"/>
      <point x="123" y="295"/>
    </contour>
    <contour>
      <point x="245" y="405" type="curve" smooth="yes"/>
      <point x="193" y="405"/>
      <point x="152" y="448"/>
      <point x="152" y="503" type="curve" smooth="yes"/>
      <point x="152" y="558"/>
      <point x="193" y="601"/>
      <point x="245" y="601" type="curve" smooth="yes"/>
      <point x="297" y="601"/>
      <point x="338" y="558"/>
      <point x="338" y="503" type="curve" smooth="yes"/>
      <point x="338" y="448"/>
      <point x="297" y="405"/>
    </contour>
  </outline>
</glyph>
<glyph name="Ccedilla" format="2">
  <advance width="720"/>
  <unicode hex="00C7"/>
  <outline>
    <contour>
      <point x="398" y="-254" type="curve" smooth="yes"/>
      <point x="473" y="-254"/>
      <point x="530" y="-206"/>
      <point x="530" y="-144" type="curve" smooth="yes"/>
      <point x="530" y="-95"/>
      <point x="491" y="-63"/>
      <point x="428" y="-58" type="curve"/>
      <point x="440" y="-10" type="line"/>
      <point x="543" y="-3"/>
      <point x="642" y="48"/>
      <point x="698" y="125" type="curve"/>
      <point x="582" y="235" type="line"/>
      <point x="536" y="173"/>
      <point x="480" y="142"/>
      <point x="414" y="142" type="curve" smooth="yes"/>
      <point x="305" y="142"/>
      <point x="223" y="231"/>
      <point x="223" y="350" type="curve" smooth="yes"/>
      <point x="223" y="469"/>
      <point x="305" y="558"/>
      <point x="414" y="558" type="curve" smooth="yes"/>
      <point x="480" y="558"/>
      <point x="536" y="527"/>
      <point x="582" y="465" type="curve"/>
      <point x="698" y="575" type="line"/>
      <point x="637" y="658"/>
      <point x="526" y="711"/>
      <point x="414" y="711" type="curve" smooth="yes"/>
      <point x="206" y="711"/>
      <point x="45" y="554"/>
      <point x="45" y="350" type="curve" smooth="yes"/>
      <point x="45" y="162"/>
      <point x="182" y="13"/>
      <point x="367" y="-8" type="curve"/>
      <point x="342" y="-111" type="line"/>
      <point x="387" y="-111" type="line" smooth="yes"/>
      <point x="422" y="-111"/>
      <point x="443" y="-124"/>
      <point x="443" y="-146" type="curve" smooth="yes"/>
      <point x="443" y="-170"/>
      <point x="424" y="-183"/>
      <point x="389" y="-183" type="curve" smooth="yes"/>
      <point x="363" y="-183"/>
      <point x="335" y="-173"/>
      <point x="312" y="-155" type="curve"/>
      <point x="263" y="-212" type="line"/>
      <point x="295" y="-240"/>
      <point x="339" y="-254"/>
    </contour>
  </outline>
</glyph>
<glyph name="Oslash" format="2">
  <advance width="814"/>
  <unicode hex="00D8"/>
  <outline>
    <contour>
      <point x="407" y="-11" type="curve" smooth="yes"/>
      <point x="610" y="-11"/>
      <point x="769" y="148"/>
      <point x="769" y="350" type="curve" smooth="yes"/>
      <point x="769" y="442"/>
      <point x="736" y="525"/>
      <point x="681" y="588" type="curve"/>
      <point x="776" y="700" type="line"/>
      <point x="636" y="700" type="line"/>
      <point x="599" y="657" type="line"/>
      <point x="544" y="691"/>
      <point x="478" y="711"/>
      <point x="407" y="711" type="curve" smooth="yes"/>
      <point x="204" y="711"/>
      <point x="45" y="552"/>
      <point x="45" y="350" type="curve" smooth="yes"/>
      <point x="45" y="258"/>
      <point x="78" y="175"/>
      <point x="133" y="112" type="curve"/>
      <point x="38" y="0" type="line"/>
      <point x="178" y="0" type="line"/>
      <point x="215" y="43" type="line"/>
      <point x="270" y="9"/>
      <point x="336" y="-11"/>
    </contour>
    <contour>
      <point x="246" y="244" type="line"/>
      <point x="231" y="274"/>
      <point x="222" y="311"/>
      <point x="222" y="350" type="curve" smooth="yes"/>
      <point x="222" y="469"/>
      <point x="302" y="558"/>
      <point x="407" y="558" type="curve" smooth="yes"/>
      <point x="439" y="558"/>
      <point x="469" y="550"/>
      <point x="495" y="535" type="curve"/>
    </contour>
    <contour>
      <point x="407" y="142" type="curve" smooth="yes"/>
      <point x="375" y="142"/>
      <point x="345" y="150"/>
      <point x="319" y="165" type="curve"/>
      <point x="568" y="456" type="line"/>
      <point x="583" y="426"/>
      <point x="592" y="389"/>
      <point x="592" y="350" type="curve" smooth="yes"/>
      <point x="592" y="231"/>
      <point x="512" y="142"/>
    </contour>
  </outline>
</glyph>
<glyph name="Thorn" format="2">
  <advance width="710"/>
  <unicode hex="00DE"/>
  <outline>
    <contour>
      <point x="78" y="0" type="line"/>
      <point x="250" y="0" type="line"/>
      <point x="250" y="122" type="line"/>
      <point x="420" y="122" type="line" smooth="yes"/>
      <point x="569" y="122"/>
      <point x="667" y="220"/>
      <point x="667" y="347" type="curve" smooth="yes"/>
      <point x="667" y="481"/>
      <point x="569" y="578"/>
      <point x="420" y="578" type="curve" smooth="yes"/>
      <point x="250" y="578" type="line"/>
      <point x="250" y="700" type="line"/>
      <point x="78" y="700" type="line"/>
    </contour>
    <contour>
      <point x="250" y="259" type="line"/>
      <point x="250" y="436" type="line"/>
      <point x="390" y="436" type="line" smooth="yes"/>
      <point x="459" y="436"/>
      <point x="493" y="398"/>
      <point x="493" y="348" type="curve" smooth="yes"/>
      <point x="493" y="297"/>
      <point x="459" y="259"/>
      <point x="389" y="259" type="curve" smooth="yes"/>
    </contour>
  </outline>
</glyph>
<glyph name="Aogonek" format="2">
  <advance width="742"/>
  <unicode hex="0104"/>
  <outline>
    <contour>
      <point x="677" y="-231" type="curve" smooth="yes"/>
      <point x="713" y="-231"/>
      <point x="748" y="-222"/>
      <point x="770" y="-208" type="curve"/>
      <point x="750" y="-138" type="line"/>
      <point x="740" y="-145"/>
      <point x="723" y="-149"/>
      <point x="705" y="-149" type="curve" smooth="yes"/>
      <point x="675" y="-149"/>
      <point x="656" y="-132"/>
      <point x="656" y="-103" type="curve" smooth="yes"/>
      <point x="656" y="-67"/>
      <point x="682" y="-35"/>
      <point x="740" y="0" type="curve"/>
      <point x="471" y="700" type="line"/>
      <point x="275" y="700" type="line"/>
      <point x="2" y="0" type="line"/>
      <point x="181" y="0" type="line"/>
      <point x="240" y="167" type="line"/>
      <point x="496" y="167" type="line"/>
      <point x="554" y="0" type="line"/>
      <point x="657" y="0" type="line"/>
      <point x="596" y="-41"/>
      <point x="569" y="-82"/>
      <point x="569" y="-132" type="curve" smooth="yes"/>
      <point x="569" y="-191"/>
      <point x="612" y="-231"/>
    </contour>
    <contour>
      <point x="287" y="300" type="line"/>
      <point x="369" y="532" type="line"/>
      <point x="450" y="300" type="line"/>
    </contour>
  </outline>
</glyph>
<glyph name="Eogonek" format="2">
  <advance width="668"/>
  <unicode hex="0118"/>
  <outline>
    <contour>
      <point x="640" y="-208" type="curve"/>
      <point x="620" y="-138" type="line"/>
      <point x="610" y="-145"/>
      <point x="593" y="-149"/>
      <point x="575" y="-149" type="curve" smooth="yes"/>
      <point x="545" y="-149"/>
      <point x="526" y="-132"/>
      <point x="526" y="-103" type="curve" smooth="yes"/>
      <point x="526" y="-67"/>
      <point x="553" y="-35"/>
      <point x="611" y="0" type="curve"/>
      <point x="611" y="144" type="line"/>
      <point x="250" y="144" type="line"/>
      <point x="250" y="283" type="line"/>
      <point x="502" y="283" type="line"/>
      <point x="502" y="423" type="line"/>
      <point x="250" y="423" type="line"/>
      <point x="250" y="556" type="line"/>
      <point x="607" y="556" type="line"/>
      <point x="607" y="700" type="line"/>
      <point x="78" y="700" type="line"/>
      <point x="78" y="0" type="line"/>
      <point x="527" y="0" type="line"/>
      <point x="466" y="-41"/>
      <point x="439" y="-82"/>
      <point x="439" y="-132" type="curve" smooth="yes"/>
      <point x="439" y="-191"/>
      <point x="482" y="-231"/>
      <point x="547" y="-231" type="curve" smooth="yes"/>
      <point x="583" y="-231"/>
      <point x="618" y="-222"/>
    </contour>
  </outline>
</glyph>
<glyph name="eogonek" format="2">
  <advance width="592"/>
  <unicode hex="0119"/>
  <outline>
    <contour>
      <point x="331" y="-231" type="curve" smooth="yes"/>
      <point x="367" y="-231"/>
      <point x="402" y="-222"/>
      <point x="424" y="-208" type="curve"/>
      <point x="404" y="-138" type="line"/>
      <point x="394" y="-145"/>
      <point x="377" y="-149"/>
      <point x="359" y="-149" type="curve" smooth="yes"/>
      <point x="329" y="-149"/>
      <point x="310" y="-132"/>
      <point x="310" y="-103" type="curve" smooth="yes"/>
      <point x="310" y="-68"/>
      <point x="336" y="-36"/>
      <point x="393" y="-1" type="curve"/>
      <point x="442" y="10"/>
      <point x="485" y="34"/>
      <point x="529" y="73" type="curve"/>
      <point x="422" y="162" type="line"/>
      <point x="399" y="134"/>
      <point x="363" y="119"/>
      <point x="320" y="119" type="curve" smooth="yes"/>
      <point x="261" y="119"/>
      <point x="214" y="158"/>
      <point x="199" y="216" type="curve"/>
      <point x="554" y="216" type="line"/>
      <point x="554" y="251" type="line" smooth="yes"/>
      <point x="554" y="411"/>
      <point x="449" y="524"/>
      <point x="300" y="524" type="curve" smooth="yes"/>
      <point x="152" y="524"/>
      <point x="40" y="408"/>
      <point x="40" y="257" type="curve" smooth="yes"/>
      <point x="40" y="112"/>
      <point x="152" y="-3"/>
      <point x="298" y="-10" type="curve"/>
      <point x="246" y="-47"/>
      <point x="223" y="-86"/>
      <point x="223" y="-132" type="curve" smooth="yes"/>
      <point x="223" y="-191"/>
      <point x="266" y="-231"/>
    </contour>
    <contour>
      <point x="199" y="308" type="line"/>
      <point x="212" y="365"/>
      <point x="248" y="398"/>
      <point x="299" y="398" type="curve" smooth="yes"/>
      <point x="351" y="398"/>
      <point x="390" y="363"/>
      <point x="404" y="308" type="curve"/>
    </contour>
  </outline>
</glyph>
<glyph name="hcircumflex" format="2">
  <advance width="618"/>
  <unicode hex="0125"/>
  <outline>
    <contour>
      <point x="63" y="0" type="line"/>
      <point x="225" y="0" type="line"/>
      <point x="225" y="354" type="line"/>
      <point x="247" y="382"/>
      <point x="275" y="397"/>
      <point x="311" y="397" type="curve" smooth="yes"/>
      <point x="365" y="397"/>
      <point x="397" y="357"/>
      <point x="397" y="301" type="curve" smooth="yes"/>
      <point x="397" y="0" type="line"/>
      <point x="559" y="0" type="line"/>
      <point x="559" y="348" type="line" smooth="yes"/>
      <point x="559" y="450"/>
      <point x="489" y="524"/>
      <point x="388" y="524" type="curve" smooth="yes"/>
      <point x="320" y="524"/>
      <point x="264" y="491"/>
      <point x="225" y="433" type="curve"/>
      <point x="225" y="727" type="line"/>
      <point x="63" y="727" type="line"/>
    </contour>
    <contour>
      <point x="-60" y="782" type="line"/>
      <point x="63" y="782" type="line"/>
      <point x="144" y="865" type="line"/>
      <point x="226" y="782" type="line"/>
      <point x="352" y="782" type="line"/>
      <point x="224" y="933" type="line"/>
      <point x="68" y="933" type="line"/>
    </contour>
  </outline>
</glyph>
<glyph name="Hbar" format="2">
  <advance width="813"/>
  <unicode hex="0126"/>
  <outline>
    <contour>
      <point x="93" y="0" type="line"/>
      <point x="265" y="0" type="line"/>
      <point x="265" y="277" type="line"/>
      <point x="548" y="277" type="line"/>
      <point x="548" y="0" type="line"/>
      <point x="720" y="0" type="line"/>
      <point x="720" y="493" type="line"/>
      <point x="800" y="493" type="line"/>
      <point x="800" y="613" type="line"/>
      <point x="720" y="613" type="line"/>
      <point x="720" y="700" type="line"/>
      <point x="548" y="700" type="line"/>
      <point x="548" y="613" type="line"/>
      <point x="265" y="613" type="line"/>
      <point x="265" y="700" type="line"/>
      <point x="93" y="700" type="line"/>
      <point x="93" y="613" type="line"/>
      <point x="13" y="613" type="line"/>
      <point x="13" y="493" type="line"/>
      <point x="93" y="493" type="line"/>
    </contour>
    <contour>
      <point x="265" y="417" type="line"/>
      <point x="265" y="493" type="line"/>
      <point x="548" y="493" type="line"/>
      <point x="548" y="417" type="line"/>
    </contour>
  </outline>
</glyph>
<glyph name="Iogonek" format="2">
  <advance width="308"/>
  <unicode hex="012E"/>
  <outline>
    <contour>
      <point x="176" y="-231" type="curve" smooth="yes"/>
      <point x="212" y="-231"/>
      <point x="247" y="-222"/>
      <point x="269" y="-208" type="curve"/>
      <point x="249" y="-138" type="line"/>
      <point x="239" y="-145"/>
      <point x="222" y="-149"/>
      <point x="204" y="-149" type="curve" smooth="yes"/>
      <point x="174" y="-149"/>
      <point x="155" y="-132"/>
      <point x="155" y="-103" type="curve" smooth="yes"/>
      <point x="155" y="-67"/>
      <point x="182" y="-35"/>
      <point x="240" y="0" type="curve"/>
      <point x="240" y="700" type="line"/>
      <point x="68" y="700" type="line"/>
      <point x="68" y="0" type="line"/>
      <point x="156" y="0" type="line"/>
      <point x="95" y="-41"/>
      <point x="68" y="-82"/>
      <point x="68" y="-132" type="curve" smooth="yes"/>
      <point x="68" y="-191"/>
      <point x="111" y="-231"/>
    </contour>
  </outline>
</glyph>
<glyph name="iogonek" format="2">
  <advance width="288"/>
  <unicode hex="012F"/>
  <outline>
    <contour>
      <point x="144" y="595" type="curve" smooth="yes"/>
      <point x="194" y="595"/>
      <point x="235" y="636"/>
      <point x="235" y="686" type="curve" smooth="yes"/>
      <point x="235" y="736"/>
      <point x="194" y="777"/>
      <point x="144" y="777" type="curve" smooth="yes"/>
      <point x="94" y="777"/>
      <point x="53" y="736"/>
      <point x="53" y="686" type="curve" smooth="yes"/>
      <point x="53" y="636"/>
      <point x="94" y="595"/>
    </contour>
    <contour>
      <point x="161" y="-231" type="curve" smooth="yes"/>
      <point x="197" y="-231"/>
      <point x="232" y="-222"/>
      <point x="254" y="-208" type="curve"/>
      <point x="234" y="-138" type="line"/>
      <point x="224" y="-145"/>
      <point x="207" y="-149"/>
      <point x="189" y="-149" type="curve" smooth="yes"/>
      <point x="159" y="-149"/>
      <point x="140" y="-132"/>
      <point x="140" y="-103" type="curve" smooth="yes"/>
      <point x="140" y="-67"/>
      <point x="167" y="-35"/>
      <point x="225" y="0" type="curve"/>
      <point x="225" y="516" type="line"/>
      <point x="63" y="516" type="line"/>
      <point x="63" y="0" type="line"/>
      <point x="141" y="0" type="line"/>
      <point x="80" y="-41"/>
      <point x="53" y="-82"/>
      <point x="53" y="-132" type="curve" smooth="yes"/>
      <point x="53" y="-191"/>
      <point x="96" y="-231"/>
    </contour>
  </outline>
</glyph>
<glyph name="dotlessi" format="2">
  <advance width="288"/>
  <unicode hex="0131"/>
  <anchor x="144" y="516" name="top"/>
  <anchor x="225" y="0" name="bottom"/>
  <outline>
    <contour>
      <point x="63" y="0" type="line"/>
      <point x="225" y="0" type="line"/>
      <point x="225" y="516" type="line"/>
      <point x="63" y="516" type="line"/>
    </contour>
  </outline>
</glyph>
<glyph name="Lslash" format="2">
  <advance width="677"/>
  <unicode hex="0141"/>
  <outline>
    <contour>
      <point x="107" y="0" type="line"/>
      <point x="626" y="0" type="line"/>
      <point x="626" y="147" type="line"/>
      <point x="279" y="147" type="line"/>
      <point x="279" y="311" type="line"/>
      <point x="432" y="401" type="line"/>
      <point x="432" y="543" type="line"/>
      <point x="279" y="453" type="line"/>
      <point x="279" y="700" type="line"/>
      <point x="107" y="700" type="line"/>
      <point x="107" y="353" type="line"/>
      <point x="10" y="296" type="line"/>
      <point x="10" y="154" type="line"/>
      <point x="107" y="211" type="line"/>
    </contour>
  </outline>
</glyph>
<glyph name="lslash" format="2">
  <advance width="322"/>
  <unicode hex="0142"/>
  <outline>
    <contour>
      <point x="81" y="0" type="line"/>
      <point x="243" y="0" type="line"/>
      <point x="243" y="333" type="line"/>
      <point x="331" y="393" type="line"/>
      <point x="331" y="545" type="line"/>
      <point x="243" y="484" type="line"/>
      <point x="243" y="737" type="line"/>
      <point x="81" y="712" type="line"/>
      <point x="81" y="373" type="line"/>
      <point x="-9" y="311" type="line"/>
      <point x="-9" y="160" type="line"/>
      <point x="81" y="222" type="line"/>
    </contour>
  </outline>
</glyph>
<glyph name="OE" format="2">
  <advance width="1076"/>
  <unicode hex="0152"/>
  <outline>
    <contour>
      <point x="401" y="0" type="curve" smooth="yes"/>
      <point x="1019" y="0" type="line"/>
      <point x="1019" y="149" type="line"/>
      <point x="667" y="149" type="line"/>
      <point x="695" y="188"/>
      <point x="715" y="233"/>
      <point x="724" y="281" type="curve"/>
      <point x="902" y="281" type="line"/>
      <point x="902" y="425" type="line"/>
      <point x="723" y="425" type="line"/>
      <point x="713" y="471"/>
      <point x="694" y="513"/>
      <point x="668" y="551" type="curve"/>
      <point x="1019" y="551" type="line"/>
      <point x="1019" y="700" type="line"/>
      <point x="401" y="700" type="line" smooth="yes"/>
      <point x="196" y="700"/>
      <point x="45" y="551"/>
      <point x="45" y="350" type="curve" smooth="yes"/>
      <point x="45" y="149"/>
      <point x="196" y="0"/>
    </contour>
    <contour>
      <point x="391" y="147" type="curve" smooth="yes"/>
      <point x="291" y="147"/>
      <point x="214" y="235"/>
      <point x="214" y="350" type="curve" smooth="yes"/>
      <point x="214" y="465"/>
      <point x="291" y="553"/>
      <point x="391" y="553" type="curve" smooth="yes"/>
      <point x="491" y="553"/>
      <point x="568" y="465"/>
      <point x="568" y="350" type="curve" smooth="yes"/>
      <point x="568" y="235"/>
      <point x="491" y="147"/>
    </contour>
  </outline>
</glyph>
<glyph name="oe" format="2">
  <advance width="975"/>
  <unicode hex="0153"/>
  <outline>
    <contour>
      <point x="309" y="-10" type="curve" smooth="yes"/>
      <point x="386" y="-10"/>
      <point x="453" y="21"/>
      <point x="500" y="73" type="curve"/>
      <point x="548" y="22"/>
      <point x="617" y="-10"/>
      <point x="695" y="-10" type="curve" smooth="yes"/>
      <point x="782" y="-10"/>
      <point x="845" y="14"/>
      <point x="912" y="73" type="curve"/>
      <point x="805" y="162" type="line"/>
      <point x="782" y="134"/>
      <point x="746" y="119"/>
      <point x="703" y="119" type="curve" smooth="yes"/>
      <point x="644" y="119"/>
      <point x="597" y="158"/>
      <point x="582" y="216" type="curve"/>
      <point x="937" y="216" type="line"/>
      <point x="937" y="251" type="line" smooth="yes"/>
      <point x="937" y="412"/>
      <point x="832" y="525"/>
      <point x="683" y="525" type="curve" smooth="yes"/>
      <point x="609" y="525"/>
      <point x="543" y="494"/>
      <point x="498" y="444" type="curve"/>
      <point x="451" y="494"/>
      <point x="385" y="524"/>
      <point x="309" y="524" type="curve" smooth="yes"/>
      <point x="156" y="524"/>
      <point x="40" y="409"/>
      <point x="40" y="257" type="curve" smooth="yes"/>
      <point x="40" y="106"/>
      <point x="156" y="-10"/>
    </contour>
    <contour>
      <point x="309" y="127" type="curve" smooth="yes"/>
      <point x="244" y="127"/>
      <point x="198" y="181"/>
      <point x="198" y="257" type="curve" smooth="yes"/>
      <point x="198" y="334"/>
      <point x="244" y="389"/>
      <point x="309" y="389" type="curve" smooth="yes"/>
      <point x="374" y="389"/>
      <point x="421" y="334"/>
      <point x="421" y="257" type="curve" smooth="yes"/>
      <point x="421" y="181"/>
      <point x="375" y="127"/>
    </contour>
    <contour>
      <point x="582" y="308" type="line"/>
      <point x="595" y="365"/>
      <point x="631" y="399"/>
      <point x="682" y="399" type="curve" smooth="yes"/>
      <point x="734" y="399"/>
      <point x="774" y="364"/>
      <point x="787" y="308" type="curve"/>
    </contour>
  </outline>
</glyph>
<glyph name="Scedilla" format="2">
  <advance width="655"/>
  <unicode hex="015E"/>
  <outline>
    <contour>
      <point x="312" y="-254" type="curve" smooth="yes"/>
      <point x="387" y="-254"/>
      <point x="444" y="-206"/>
      <point x="444" y="-144" type="curve" smooth="yes"/>
      <point x="444" y="-95"/>
      <point x="405" y="-63"/>
      <point x="342" y="-58" type="curve"/>
      <point x="354" y="-10" type="line"/>
      <point x="518" y="0"/>
      <point x="621" y="90"/>
      <point x="621" y="219" type="curve" smooth="yes"/>
      <point x="621" y="326"/>
      <point x="552" y="395"/>
      <point x="421" y="417" type="curve" smooth="yes"/>
      <point x="281" y="441" type="line" smooth="yes"/>
      <point x="225" y="451"/>
      <point x="202" y="469"/>
      <point x="202" y="505" type="curve" smooth="yes"/>
      <point x="202" y="543"/>
      <point x="241" y="571"/>
      <point x="309" y="571" type="curve" smooth="yes"/>
      <point x="383" y="571"/>
      <point x="450" y="546"/>
      <point x="518" y="494" type="curve"/>
      <point x="605" y="619" type="line"/>
      <point x="533" y="676"/>
      <point x="426" y="711"/>
      <point x="318" y="711" type="curve" smooth="yes"/>
      <point x="144" y="711"/>
      <point x="40" y="626"/>
      <point x="40" y="490" type="curve" smooth="yes"/>
      <point x="40" y="391"/>
      <point x="101" y="321"/>
      <point x="212" y="302" type="curve" smooth="yes"/>
      <point x="361" y="276" type="line" smooth="yes"/>
      <point x="429" y="264"/>
      <point x="453" y="244"/>
      <point x="453" y="203" type="curve" smooth="yes"/>
      <point x="453" y="159"/>
      <point x="408" y="129"/>
      <point x="334" y="129" type="curve" smooth="yes"/>
      <point x="265" y="129"/>
      <point x="204" y="154"/>
      <point x="107" y="222" type="curve"/>
      <point x="19" y="95" type="line"/>
      <point x="100" y="35"/>
      <point x="186" y="-1"/>
      <point x="281" y="-9" type="curve"/>
      <point x="256" y="-111" type="line"/>
      <point x="301" y="-111" type="line" smooth="yes"/>
      <point x="336" y="-111"/>
      <point x="357" y="-124"/>
      <point x="357" y="-146" type="curve" smooth="yes"/>
      <point x="357" y="-170"/>
      <point x="338" y="-183"/>
      <point x="303" y="-183" type="curve" smooth="yes"/>
      <point x="277" y="-183"/>
      <point x="249" y="-173"/>
      <point x="226" y="-155" type="curve"/>
      <point x="177" y="-212" type="line"/>
      <point x="209" y="-240"/>
      <point x="253" y="-254"/>
    </contour>
  </outline>
</glyph>
<glyph name="scedilla" format="2">
  <advance width="511"/>
  <unicode hex="015F"/>
  <outline>
    <contour>
      <point x="250" y="-254" type="curve" smooth="yes"/>
      <point x="325" y="-254"/>
      <point x="382" y="-206"/>
      <point x="382" y="-144" type="curve" smooth="yes"/>
      <point x="382" y="-95"/>
      <point x="343" y="-63"/>
      <point x="280" y="-58" type="curve"/>
      <point x="292" y="-8" type="line"/>
      <point x="402" y="4"/>
      <point x="480" y="75"/>
      <point x="480" y="167" type="curve" smooth="yes"/>
      <point x="480" y="245"/>
      <point x="427" y="297"/>
      <point x="325" y="316" type="curve" smooth="yes"/>
      <point x="228" y="334" type="line" smooth="yes"/>
      <point x="188" y="341"/>
      <point x="175" y="350"/>
      <point x="175" y="371" type="curve" smooth="yes"/>
      <point x="175" y="393"/>
      <point x="198" y="406"/>
      <point x="237" y="406" type="curve" smooth="yes"/>
      <point x="285" y="406"/>
      <point x="333" y="392"/>
      <point x="385" y="362" type="curve"/>
      <point x="459" y="465" type="line"/>
      <point x="392" y="504"/>
      <point x="321" y="524"/>
      <point x="249" y="524" type="curve" smooth="yes"/>
      <point x="114" y="524"/>
      <point x="33" y="461"/>
      <point x="33" y="356" type="curve" smooth="yes"/>
      <point x="33" y="276"/>
      <point x="85" y="225"/>
      <point x="185" y="206" type="curve" smooth="yes"/>
      <point x="284" y="188" type="line" smooth="yes"/>
      <point x="317" y="182"/>
      <point x="332" y="171"/>
      <point x="332" y="151" type="curve" smooth="yes"/>
      <point x="332" y="125"/>
      <point x="304" y="109"/>
      <point x="258" y="109" type="curve" smooth="yes"/>
      <point x="208" y="109"/>
      <point x="166" y="122"/>
      <point x="92" y="161" type="curve"/>
      <point x="21" y="53" type="line"/>
      <point x="73" y="18"/>
      <point x="141" y="-3"/>
      <point x="219" y="-9" type="curve"/>
      <point x="194" y="-111" type="line"/>
      <point x="239" y="-111" type="line" smooth="yes"/>
      <point x="274" y="-111"/>
      <point x="295" y="-124"/>
      <point x="295" y="-146" type="curve" smooth="yes"/>
      <point x="295" y="-170"/>
      <point x="276" y="-183"/>
      <point x="241" y="-183" type="curve" smooth="yes"/>
      <point x="215" y="-183"/>
      <point x="187" y="-173"/>
      <point x="164" y="-155" type="curve"/>
      <point x="115" y="-212" type="line"/>
      <point x="147" y="-240"/>
      <point x="191" y="-254"/>
    </contour>
  </outline>
</glyph>
<glyph name="Tcedilla" format="2">
  <advance width="664"/>
  <unicode hex="0162"/>
  <outline>
    <contour>
      <point x="325" y="-254" type="curve" smooth="yes"/>
      <point x="400" y="-254"/>
      <point x="457" y="-206"/>
      <point x="457" y="-144" type="curve" smooth="yes"/>
      <point x="457" y="-95"/>
      <point x="418" y="-63"/>
      <point x="355" y="-58" type="curve"/>
      <point x="369" y="0" type="line"/>
      <point x="418" y="0" type="line"/>
      <point x="418" y="553" type="line"/>
      <point x="643" y="553" type="line"/>
      <point x="643" y="700" type="line"/>
      <point x="21" y="700" type="line"/>
      <point x="21" y="553" type="line"/>
      <point x="246" y="553" type="line"/>
      <point x="246" y="0" type="line"/>
      <point x="296" y="0" type="line"/>
      <point x="269" y="-111" type="line"/>
      <point x="314" y="-111" type="line" smooth="yes"/>
      <point x="349" y="-111"/>
      <point x="370" y="-124"/>
      <point x="370" y="-146" type="curve" smooth="yes"/>
      <point x="370" y="-170"/>
      <point x="351" y="-183"/>
      <point x="316" y="-183" type="curve" smooth="yes"/>
      <point x="290" y="-183"/>
      <point x="262" y="-173"/>
      <point x="239" y="-155" type="curve"/>
      <point x="190" y="-212" type="line"/>
      <point x="222" y="-240"/>
      <point x="266" y="-254"/>
    </contour>
  </outline>
</glyph>
<glyph name="tcedilla" format="2">
  <advance width="458"/>
  <unicode hex="0163"/>
  <outline>
    <contour>
      <point x="273" y="-254" type="curve" smooth="yes"/>
      <point x="348" y="-254"/>
      <point x="405" y="-206"/>
      <point x="405" y="-144" type="curve" smooth="yes"/>
      <point x="405" y="-95"/>
      <point x="366" y="-63"/>
      <point x="303" y="-58" type="curve"/>
      <point x="315" y="-10" type="line"/>
      <point x="315" y="-10.0"/>
      <point x="316" y="-10.0"/>
      <point x="316" y="-10" type="curve" smooth="yes"/>
      <point x="349" y="-10"/>
      <point x="397" y="-3"/>
      <point x="427" y="6" type="curve"/>
      <point x="427" y="137" type="line"/>
      <point x="395" y="128"/>
      <point x="380" y="126"/>
      <point x="361" y="126" type="curve" smooth="yes"/>
      <point x="311" y="126"/>
      <point x="293" y="142"/>
      <point x="293" y="188" type="curve" smooth="yes"/>
      <point x="293" y="391" type="line"/>
      <point x="431" y="391" type="line"/>
      <point x="431" y="516" type="line"/>
      <point x="293" y="516" type="line"/>
      <point x="293" y="692" type="line"/>
      <point x="131" y="659" type="line"/>
      <point x="131" y="516" type="line"/>
      <point x="31" y="516" type="line"/>
      <point x="31" y="391" type="line"/>
      <point x="131" y="391" type="line"/>
      <point x="131" y="156" type="line" smooth="yes"/>
      <point x="131" y="70"/>
      <point x="169" y="17"/>
      <point x="244" y="-2" type="curve"/>
      <point x="217" y="-111" type="line"/>
      <point x="262" y="-111" type="line" smooth="yes"/>
      <point x="297" y="-111"/>
      <point x="318" y="-124"/>
      <point x="318" y="-146" type="curve" smooth="yes"/>
      <point x="318" y="-170"/>
      <point x="299" y="-183"/>
      <point x="264" y="-183" type="curve" smooth="yes"/>
      <point x="238" y="-183"/>
      <point x="210" y="-173"/>
      <point x="187" y="-155" type="curve"/>
      <point x="138" y="-212" type="line"/>
      <point x="170" y="-240"/>
      <point x="214" y="-254"/>
    </contour>
  </outline>
</glyph>
<glyph name="Tbar" format="2">
  <advance width="664"/>
  <unicode hex="0166"/>
  <outline>
    <contour>
      <point x="246" y="0" type="line"/>
      <point x="418" y="0" type="line"/>
      <point x="418" y="259" type="line"/>
      <point x="540" y="259" type="line"/>
      <point x="540" y="379" type="line"/>
      <point x="418" y="379" type="line"/>
      <point x="418" y="553" type="line"/>
      <point x="643" y="553" type="line"/>
      <point x="643" y="700" type="line"/>
      <point x="21" y="700" type="line"/>
      <point x="21" y="553" type="line"/>
      <point x="246" y="553" type="line"/>
      <point x="246" y="379" type="line"/>
      <point x="124" y="379" type="line"/>
      <point x="124" y="259" type="line"/>
      <point x="246" y="259" type="line"/>
    </contour>
  </outline>
</glyph>
<glyph name="tbar" format="2">
  <advance width="458"/>
  <unicode hex="0167"/>
  <outline>
    <contour>
      <point x="316" y="-10" type="curve" smooth="yes"/>
      <point x="349" y="-10"/>
      <point x="397" y="-3"/>
      <point x="427" y="6" type="curve"/>
      <point x="427" y="137" type="line"/>
      <point x="395" y="128"/>
      <point x="380" y="126"/>
      <point x="361" y="126" type="curve" smooth="yes"/>
      <point x="311" y="126"/>
      <point x="293" y="142"/>
      <point x="293" y="188" type="curve" smooth="yes"/>
      <point x="293" y="226" type="line"/>
      <point x="431" y="226" type="line"/>
      <point x="431" y="314" type="line"/>
      <point x="293" y="314" type="line"/>
      <point x="293" y="391" type="line"/>
      <point x="431" y="391" type="line"/>
      <point x="431" y="516" type="line"/>
      <point x="293" y="516" type="line"/>
      <point x="293" y="692" type="line"/>
      <point x="131" y="659" type="line"/>
      <point x="131" y="516" type="line"/>
      <point x="31" y="516" type="line"/>
      <point x="31" y="391" type="line"/>
      <point x="131" y="391" type="line"/>
      <point x="131" y="314" type="line"/>
      <point x="31" y="314" type="line"/>
      <point x="31" y="226" type="line"/>
      <point x="131" y="226" type="line"/>
      <point x="131" y="156" type="line" smooth="yes"/>
      <point x="131" y="46"/>
      <point x="194" y="-10"/>
    </contour>
  </outline>
</glyph>
<glyph name="Uogonek" format="2">
  <advance width="748"/>
  <unicode hex="0172"/>
  <outline>
    <contour>
      <point x="399" y="-231" type="curve" smooth="yes"/>
      <point x="435" y="-231"/>
      <point x="470" y="-222"/>
      <point x="492" y="-208" type="curve"/>
      <point x="472" y="-138" type="line"/>
      <point x="462" y="-145"/>
      <point x="445" y="-149"/>
      <point x="427" y="-149" type="curve" smooth="yes"/>
      <point x="397" y="-149"/>
      <point x="378" y="-132"/>
      <point x="378" y="-103" type="curve" smooth="yes"/>
      <point x="378" y="-67"/>
      <point x="405" y="-35"/>
      <point x="463" y="0" type="curve"/>
      <point x="600" y="33"/>
      <point x="684" y="144"/>
      <point x="684" y="304" type="curve" smooth="yes"/>
      <point x="684" y="700" type="line"/>
      <point x="512" y="700" type="line"/>
      <point x="512" y="304" type="line" smooth="yes"/>
      <point x="512" y="207"/>
      <point x="458" y="144"/>
      <point x="374" y="144" type="curve" smooth="yes"/>
      <point x="290" y="144"/>
      <point x="236" y="207"/>
      <point x="236" y="304" type="curve" smooth="yes"/>
      <point x="236" y="700" type="line"/>
      <point x="64" y="700" type="line"/>
      <point x="64" y="304" type="line" smooth="yes"/>
      <point x="64" y="114"/>
      <point x="182" y="-7"/>
      <point x="366" y="-10" type="curve"/>
      <point x="314" y="-47"/>
      <point x="291" y="-86"/>
      <point x="291" y="-132" type="curve" smooth="yes"/>
      <point x="291" y="-191"/>
      <point x="334" y="-231"/>
    </contour>
  </outline>
</glyph>
<glyph name="uogonek" format="2">
  <advance width="618"/>
  <unicode hex="0173"/>
  <outline>
    <contour>
      <point x="491" y="-231" type="curve" smooth="yes"/>
      <point x="527" y="-231"/>
      <point x="562" y="-222"/>
      <point x="584" y="-208" type="curve"/>
      <point x="564" y="-138" type="line"/>
      <point x="554" y="-145"/>
      <point x="537" y="-149"/>
      <point x="519" y="-149" type="curve" smooth="yes"/>
      <point x="489" y="-149"/>
      <point x="470" y="-132"/>
      <point x="470" y="-103" type="curve" smooth="yes"/>
      <point x="470" y="-67"/>
      <point x="497" y="-35"/>
      <point x="555" y="0" type="curve"/>
      <point x="555" y="516" type="line"/>
      <point x="393" y="516" type="line"/>
      <point x="393" y="162" type="line"/>
      <point x="370" y="133"/>
      <point x="342" y="119"/>
      <point x="307" y="119" type="curve" smooth="yes"/>
      <point x="255" y="119"/>
      <point x="221" y="157"/>
      <point x="221" y="215" type="curve" smooth="yes"/>
      <point x="221" y="516" type="line"/>
      <point x="59" y="516" type="line"/>
      <point x="59" y="168" type="line" smooth="yes"/>
      <point x="59" y="65"/>
      <point x="130" y="-8"/>
      <point x="230" y="-8" type="curve" smooth="yes"/>
      <point x="297" y="-8"/>
      <point x="353" y="24"/>
      <point x="393" y="84" type="curve"/>
      <point x="393" y="0" type="line"/>
      <point x="471" y="0" type="line"/>
      <point x="410" y="-41"/>
      <point x="383" y="-82"/>
      <point x="383" y="-132" type="curve" smooth="yes"/>
      <point x="383" y="-191"/>
      <point x="426" y="-231"/>
    </contour>
  </outline>
</glyph>
<glyph name="dotlessj" format="2">
  <advance width="288"/>
  <unicode hex="0237"/>
  <anchor x="144" y="516" name="top"/>
  <outline>
    <contour>
      <point x="46" y="-219" type="curve" smooth="yes"/>
      <point x="159" y="-219"/>
      <point x="225" y="-159"/>
      <point x="225" y="-53" type="curve" smooth="yes"/>
      <point x="225" y="516" type="line"/>
      <point x="63" y="516" type="line"/>
      <point x="63" y="-46" type="line" smooth="yes"/>
      <point x="63" y="-76"/>
      <point x="47" y="-90"/>
      <point x="11" y="-90" type="curve" smooth="yes"/>
      <point x="-6" y="-90"/>
      <point x="-19" y="-89"/>
      <point x="-34" y="-86" type="curve"/>
      <point x="-34" y="-209" type="line"/>
      <point x="-16" y="-215"/>
      <point x="20" y="-219"/>
    </contour>
  </outline>
</glyph>
<glyph name="dotaccent" format="2">
  <advance width="600"/>
  <unicode hex="02D9"/>
  <outline>
    <contour>
      <point x="300" y="602" type="curve" smooth="yes"/>
      <point x="348" y="602"/>
      <point x="388" y="642"/>
      <point x="388" y="690" type="curve" smooth="yes"/>
      <point x="388" y="739"/>
      <point x="348" y="779"/>
      <point x="300" y="779" type="curve" smooth="yes"/>
      <point x="251" y="779"/>
      <point x="212" y="739"/>
      <point x="212" y="690" type="curve" smooth="yes"/>
      <point x="212" y="642"/>
      <point x="251" y="602"/>
    </contour>
  </outline>
</glyph>
<glyph name="dagger" format="2">
  <advance width="467"/>
  <unicode hex="2020"/>
  <outline>
    <contour>
      <point x="172" y="0" type="line"/>
      <point x="295" y="0" type="line"/>
      <point x="295" y="407" type="line"/>
      <point x="423" y="407" type="line"/>
      <point x="423" y="516" type="line"/>
      <point x="295" y="516" type="line"/>
      <point x="295" y="700" type="line"/>
      <point x="172" y="700" type="line"/>
      <point x="172" y="516" type="line"/>
      <point x="44" y="516" type="line"/>
      <point x="44" y="407" type="line"/>
      <point x="172" y="407" type="line"/>
    </contour>
  </outline>
</glyph>
<glyph name="daggerdbl" format="2">
  <advance width="467"/>
  <unicode hex="2021"/>
  <outline>
    <contour>
      <point x="172" y="0" type="line"/>
      <point x="295" y="0" type="line"/>
      <point x="295" y="184" type="line"/>
      <point x="423" y="184" type="line"/>
      <point x="423" y="293" type="line"/>
      <point x="295" y="293" type="line"/>
      <point x="295" y="407" type="line"/>
      <point x="423" y="407" type="line"/>
      <point x="423" y="516" type="line"/>
      <point x="295" y="516" type="line"/>
      <point x="295" y="700" type="line"/>
      <point x="172" y="700" type="line"/>
      <point x="172" y="516" type="line"/>
      <point x="44" y="516" type="line"/>
      <point x="44" y="407" type="line"/>
      <point x="172" y="407" type="line"/>
      <point x="172" y="293" type="line"/>
      <point x="44" y="293" type="line"/>
      <point x="44" y="184" type="line"/>
      <point x="172" y="184" type="line"/>
    </contour>
  </outline>
</glyph>
<glyph name="uni2070" format="2">
  <advance width="367"/>
  <unicode hex="2070"/>
  <outline>
    <contour>
      <point x="184" y="345" type="curve" smooth="yes"/>
      <point x="277" y="345"/>
      <point x="340" y="414"/>
      <point x="340" y="526" type="curve" smooth="yes"/>
      <point x="340" y="636"/>
      <point x="277" y="706"/>
      <point x="184" y="706" type="curve" smooth="yes"/>
      <point x="90" y="706"/>
      <point x="27" y="636"/>
      <point x="27" y="526" type="curve" smooth="yes"/>
      <point x="27" y="414"/>
      <point x="90" y="345"/>
    </contour>
    <contour>
      <point x="184" y="427" type="curve" smooth="yes"/>
      <point x="144" y="427"/>
      <point x="118" y="461"/>
      <point x="118" y="526" type="curve" smooth="yes"/>
      <point x="118" y="589"/>
      <point x="144" y="624"/>
      <point x="184" y="624" type="curve" smooth="yes"/>
      <point x="223" y="624"/>
      <point x="249" y="589"/>
      <point x="249" y="526" type="curve" smooth="yes"/>
      <point x="249" y="461"/>
      <point x="223" y="427"/>
    </contour>
  </outline>
</glyph>
<glyph name="uni2075" format="2">
  <advance width="330"/>
  <unicode hex="2075"/>
  <outline>
    <contour>
      <point x="154" y="344" type="curve"/>
      <point x="245" y="344"/>
      <point x="306" y="393"/>
      <point x="306" y="465" type="curve" smooth="yes"/>
      <point x="306" y="530"/>
      <point x="258" y="573"/>
      <point x="182" y="573" type="curve" smooth="yes"/>
      <point x="161" y="573"/>
      <point x="141" y="568"/>
      <point x="120" y="558" type="curve"/>
      <point x="123" y="623" type="line"/>
      <point x="287" y="623" type="line"/>
      <point x="287" y="700" type="line"/>
      <point x="47" y="700" type="line"/>
      <point x="38" y="508" type="line"/>
      <point x="104" y="488" type="line"/>
      <point x="122" y="499"/>
      <point x="137" y="504"/>
      <point x="157" y="504" type="curve" smooth="yes"/>
      <point x="187" y="504"/>
      <point x="208" y="487"/>
      <point x="208" y="464" type="curve" smooth="yes"/>
      <point x="208" y="439"/>
      <point x="186" y="422"/>
      <point x="154" y="422" type="curve"/>
      <point x="129" y="422"/>
      <point x="105" y="430"/>
      <point x="71" y="451" type="curve"/>
      <point x="25" y="381" type="line"/>
      <point x="66" y="356"/>
      <point x="106" y="344"/>
    </contour>
  </outline>
</glyph>
<glyph name="uni2079" format="2">
  <advance width="343"/>
  <unicode hex="2079"/>
  <outline>
    <contour>
      <point x="157" y="707" type="curve" smooth="yes"/>
      <point x="80" y="707"/>
      <point x="23" y="657"/>
      <point x="23" y="590" type="curve" smooth="yes"/>
      <point x="23" y="529"/>
      <point x="69" y="488"/>
      <point x="138" y="488" type="curve" smooth="yes"/>
      <point x="173" y="488"/>
      <point x="204" y="503"/>
      <point x="225" y="529" type="curve"/>
      <point x="225" y="463"/>
      <point x="200" y="427"/>
      <point x="151" y="427" type="curve" smooth="yes"/>
      <point x="126" y="427"/>
      <point x="102" y="436"/>
      <point x="78" y="455" type="curve"/>
      <point x="30" y="384" type="line"/>
      <point x="63" y="358"/>
      <point x="103" y="344"/>
      <point x="144" y="344" type="curve" smooth="yes"/>
      <point x="248" y="344"/>
      <point x="318" y="418"/>
      <point x="318" y="528" type="curve" smooth="yes"/>
      <point x="318" y="636"/>
      <point x="254" y="707"/>
    </contour>
    <contour>
      <point x="159" y="557" type="curve" smooth="yes"/>
      <point x="132" y="557"/>
      <point x="114" y="571"/>
      <point x="114" y="592" type="curve" smooth="yes"/>
      <point x="114" y="612"/>
      <point x="134" y="627"/>
      <point x="160" y="627" type="curve" smooth="yes"/>
      <point x="186" y="627"/>
      <point x="207" y="609"/>
      <point x="218" y="580" type="curve"/>
      <point x="202" y="565"/>
      <point x="182" y="557"/>
    </contour>
  </outline>
</glyph>
<glyph name="uni2080" format="2">
  <advance width="366"/>
  <unicode hex="2080"/>
  <outline>
    <contour>
      <point x="184" y="-5" type="curve" smooth="yes"/>
      <point x="277" y="-5"/>
      <point x="340" y="64"/>
      <point x="340" y="176" type="curve" smooth="yes"/>
      <point x="340" y="286"/>
      <point x="277" y="356"/>
      <point x="184" y="356" type="curve" smooth="yes"/>
      <point x="90" y="356"/>
      <point x="27" y="286"/>
      <point x="27" y="176" type="curve" smooth="yes"/>
      <point x="27" y="64"/>
      <point x="90" y="-5"/>
    </contour>
    <contour>
      <point x="184" y="77" type="curve" smooth="yes"/>
      <point x="144" y="77"/>
      <point x="118" y="111"/>
      <point x="118" y="176" type="curve" smooth="yes"/>
      <point x="118" y="239"/>
      <point x="144" y="274"/>
      <point x="184" y="274" type="curve" smooth="yes"/>
      <point x="223" y="274"/>
      <point x="249" y="239"/>
      <point x="249" y="176" type="curve" smooth="yes"/>
      <point x="249" y="111"/>
      <point x="223" y="77"/>
    </contour>
  </outline>
</glyph>
<glyph name="uni2082" format="2">
  <advance width="318"/>
  <unicode hex="2082"/>
  <outline>
    <contour>
      <point x="33" y="0" type="line"/>
      <point x="294" y="0" type="line"/>
      <point x="294" y="79" type="line"/>
      <point x="156" y="79" type="line"/>
      <point x="244" y="162" type="line" smooth="yes"/>
      <point x="275" y="191"/>
      <point x="290" y="219"/>
      <point x="290" y="249" type="curve" smooth="yes"/>
      <point x="290" y="312"/>
      <point x="237" y="355"/>
      <point x="159" y="355" type="curve" smooth="yes"/>
      <point x="108" y="355"/>
      <point x="59" y="334"/>
      <point x="17" y="293" type="curve"/>
      <point x="69" y="231" type="line"/>
      <point x="100" y="262"/>
      <point x="126" y="274"/>
      <point x="156" y="274" type="curve" smooth="yes"/>
      <point x="180" y="274"/>
      <point x="199" y="260"/>
      <point x="199" y="241" type="curve" smooth="yes"/>
      <point x="199" y="230"/>
      <point x="192" y="218"/>
      <point x="180" y="207" type="curve" smooth="yes"/>
      <point x="33" y="68" type="line"/>
    </contour>
  </outline>
</glyph>
<glyph name="uni2083" format="2">
  <advance width="337"/>
  <unicode hex="2083"/>
  <outline>
    <contour>
      <point x="164" y="-5" type="curve"/>
      <point x="250" y="-5"/>
      <point x="311" y="39"/>
      <point x="311" y="100" type="curve"/>
      <point x="311" y="137"/>
      <point x="284" y="165"/>
      <point x="241" y="176" type="curve"/>
      <point x="279" y="188"/>
      <point x="304" y="217"/>
      <point x="304" y="253" type="curve"/>
      <point x="304" y="314"/>
      <point x="248" y="356"/>
      <point x="167" y="356" type="curve"/>
      <point x="115" y="356"/>
      <point x="59" y="333"/>
      <point x="25" y="298" type="curve"/>
      <point x="84" y="237" type="line"/>
      <point x="114" y="264"/>
      <point x="135" y="273"/>
      <point x="163" y="273" type="curve"/>
      <point x="191" y="273"/>
      <point x="209" y="259"/>
      <point x="209" y="239" type="curve"/>
      <point x="209" y="219"/>
      <point x="194" y="208"/>
      <point x="166" y="208" type="curve"/>
      <point x="135" y="208" type="line"/>
      <point x="135" y="134" type="line"/>
      <point x="177" y="134" type="line"/>
      <point x="202" y="134"/>
      <point x="216" y="124"/>
      <point x="216" y="107" type="curve"/>
      <point x="216" y="88"/>
      <point x="195" y="76"/>
      <point x="163" y="76" type="curve"/>
      <point x="130" y="76"/>
      <point x="107" y="86"/>
      <point x="78" y="111" type="curve"/>
      <point x="22" y="47" type="line"/>
      <point x="57" y="14"/>
      <point x="108" y="-5"/>
    </contour>
  </outline>
</glyph>
<glyph name="uni2084" format="2">
  <advance width="365"/>
  <unicode hex="2084"/>
  <outline>
    <contour>
      <point x="214" y="0" type="line"/>
      <point x="308" y="0" type="line"/>
      <point x="308" y="73" type="line"/>
      <point x="350" y="73" type="line"/>
      <point x="350" y="147" type="line"/>
      <point x="308" y="147" type="line"/>
      <point x="308" y="350" type="line"/>
      <point x="198" y="350" type="line"/>
      <point x="28" y="150" type="line"/>
      <point x="28" y="73" type="line"/>
      <point x="214" y="73" type="line"/>
    </contour>
    <contour>
      <point x="122" y="147" type="line"/>
      <point x="214" y="256" type="line"/>
      <point x="214" y="147" type="line"/>
    </contour>
  </outline>
</glyph>
<glyph name="uni2085" format="2">
  <advance width="330"/>
  <unicode hex="2085"/>
  <outline>
    <contour>
      <point x="154" y="-6" type="curve"/>
      <point x="245" y="-6"/>
      <point x="306" y="43"/>
      <point x="306" y="115" type="curve" smooth="yes"/>
      <point x="306" y="180"/>
      <point x="258" y="223"/>
      <point x="182" y="223" type="curve" smooth="yes"/>
      <point x="161" y="223"/>
      <point x="141" y="218"/>
      <point x="120" y="208" type="curve"/>
      <point x="123" y="273" type="line"/>
      <point x="287" y="273" type="line"/>
      <point x="287" y="350" type="line"/>
      <point x="47" y="350" type="line"/>
      <point x="38" y="158" type="line"/>
      <point x="104" y="138" type="line"/>
      <point x="122" y="149"/>
      <point x="137" y="154"/>
      <point x="157" y="154" type="curve" smooth="yes"/>
      <point x="187" y="154"/>
      <point x="208" y="137"/>
      <point x="208" y="114" type="curve" smooth="yes"/>
      <point x="208" y="89"/>
      <point x="186" y="72"/>
      <point x="154" y="72" type="curve"/>
      <point x="129" y="72"/>
      <point x="105" y="80"/>
      <point x="71" y="101" type="curve"/>
      <point x="25" y="31" type="line"/>
      <point x="66" y="6"/>
      <point x="106" y="-6"/>
    </contour>
  </outline>
</glyph>
<glyph name="acutecomb" format="2">
  <anchor x="290" y="516" name="_top"/>
  <outline>
    <contour>
      <point x="198" y="601" type="line"/>
      <point x="337" y="601" type="line"/>
      <point x="529" y="747" type="line"/>
      <point x="336" y="747" type="line"/>
    </contour>
  </outline>
</glyph>
<glyph name="aogonek.school" format="2">
  <advance width="643"/>
  <outline>
    <contour>
      <point x="516" y="-231" type="curve" smooth="yes"/>
      <point x="552" y="-231"/>
      <point x="587" y="-222"/>
      <point x="609" y="-208" type="curve"/>
      <point x="589" y="-138" type="line"/>
      <point x="579" y="-145"/>
      <point x="562" y="-149"/>
      <point x="544" y="-149" type="curve" smooth="yes"/>
      <point x="514" y="-149"/>
      <point x="495" y="-132"/>
      <point x="495" y="-103" type="curve" smooth="yes"/>
      <point x="495" y="-67"/>
      <point x="522" y="-35"/>
      <point x="580" y="0" type="curve"/>
      <point x="580" y="516" type="line"/>
      <point x="418" y="516" type="line"/>
      <point x="418" y="457" type="line"/>
      <point x="383" y="497"/>
      <point x="334" y="519"/>
      <point x="280" y="519" type="curve" smooth="yes"/>
      <point x="146" y="519"/>
      <point x="40" y="404"/>
      <point x="40" y="259" type="curve" smooth="yes"/>
      <point x="40" y="114"/>
      <point x="141" y="-3"/>
      <point x="268" y="-3" type="curve" smooth="yes"/>
      <point x="329" y="-3"/>
      <point x="386" y="24"/>
      <point x="420" y="67" type="curve"/>
      <point x="420" y="0" type="line"/>
      <point x="496" y="0" type="line"/>
      <point x="435" y="-41"/>
      <point x="408" y="-82"/>
      <point x="408" y="-132" type="curve" smooth="yes"/>
      <point x="408" y="-191"/>
      <point x="451" y="-231"/>
    </contour>
    <contour>
      <point x="199" y="258" type="curve" smooth="yes"/>
      <point x="199" y="332"/>
      <point x="251" y="386"/>
      <point x="322" y="386" type="curve" smooth="yes"/>
      <point x="359" y="386"/>
      <point x="393" y="372"/>
      <point x="418" y="346" type="curve"/>
      <point x="418" y="172" type="line"/>
      <point x="393" y="145"/>
      <point x="361" y="131"/>
      <point x="322" y="131" type="curve" smooth="yes"/>
      <point x="252" y="131"/>
      <point x="199" y="185"/>
    </contour>
  </outline>
</glyph>
<glyph name="reversequoteleft" format="2">
  <advance width="258"/>
  <outline>
    <contour>
      <point x="118" y="446" type="line"/>
      <point x="234" y="446" type="line"/>
      <point x="164" y="750" type="line"/>
      <point x="5" y="750" type="line"/>
    </contour>
  </outline>
</glyph>
<glyph name="uni0307" format="2">
  <anchor x="300" y="516" name="_top"/>
  <outline>
    <contour>
      <point x="300" y="602" type="curve" smooth="yes"/>
      <point x="348" y="602"/>
      <point x="388" y="642"/>
      <point x="388" y="690" type="curve" smooth="yes"/>
      <point x="388" y="739"/>
      <point x="348" y="779"/>
      <point x="300" y="779" type="curve" smooth="yes"/>
      <point x="251" y="779"/>
      <point x="212" y="739"/>
      <point x="212" y="690" type="curve" smooth="yes"/>
      <point x="212" y="642"/>
      <point x="251" y="602"/>
    </contour>
  </outline>
</glyph>
